<svg version="1.1" id="Layer_1" xmlns="http://www.w3.org/2000/svg" xmlns:xlink="http://www.w3.org/1999/xlink" x="0px" y="0px"
	 width="100%" viewBox="0 0 512 512" enable-background="new 0 0 512 512" xml:space="preserve">
<path fill="#000000" opacity="1.000000" stroke="none" 
	d="
M513.000000,132.000000 
	C513.000000,259.302368 513.000000,386.104736 513.000000,512.953552 
	C342.405945,512.953552 171.811905,512.953552 1.108921,512.953552 
	C1.108921,342.447662 1.108921,171.895233 1.108921,1.171406 
	C171.666519,1.171406 342.333252,1.171406 513.000000,1.171406 
	C513.000000,44.521397 513.000000,88.010696 513.000000,132.000000 
M343.152588,488.668884 
	C340.617889,495.192932 342.088623,497.857727 348.851288,499.022308 
	C350.949249,499.383575 353.118256,499.545837 355.119843,500.207367 
	C359.024261,501.497803 361.681152,500.135620 362.844360,496.485138 
	C364.045685,492.715149 361.647491,489.670013 357.058380,489.074463 
	C352.358948,488.464569 347.603638,488.284760 343.274628,487.264587 
	C347.255157,485.627258 351.370667,484.254364 355.191040,482.303406 
	C366.971313,476.287598 378.810913,470.351898 390.286530,463.788940 
	C397.307373,459.773651 404.086365,455.122040 410.280792,449.929352 
	C417.990356,443.466583 425.246918,436.402283 432.217316,429.135620 
	C439.672211,421.363953 446.566315,413.054382 454.060699,404.342590 
	C455.640503,402.372131 457.492157,400.561035 458.755737,398.405182 
	C466.508026,385.178589 474.600311,372.117493 481.609650,358.502014 
	C485.674835,350.605438 487.927582,341.775787 491.629150,332.891785 
	C492.402039,330.399017 493.174927,327.906250 493.922058,324.679993 
	C494.636566,320.385345 495.285980,316.078491 496.086609,311.799957 
	C496.704163,308.499817 497.511536,305.235168 498.857361,301.531006 
	C500.238831,291.398163 502.377594,281.297150 502.804962,271.124207 
	C503.309784,259.108246 502.741516,247.000778 501.873474,234.988266 
	C501.184113,225.448669 499.528778,215.961258 497.947784,206.509979 
	C496.909882,200.305359 495.240845,194.206314 493.942322,187.305496 
	C493.024689,185.200027 492.107056,183.094543 491.026611,180.215179 
	C489.978027,176.838608 488.929443,173.462021 488.610138,169.807373 
	C494.652893,173.637299 497.743378,172.168716 499.038422,164.865906 
	C499.382965,162.922897 499.737000,160.980423 500.145447,159.050140 
	C501.273773,153.717651 500.035187,150.901764 495.842041,150.548920 
	C491.581909,150.190460 489.646790,153.215286 489.097260,156.883789 
	C488.442017,161.258286 488.292542,165.708527 487.279663,169.738831 
	C481.294098,153.563889 473.853790,138.128510 463.976624,124.026955 
	C463.976624,124.026955 464.078033,124.041000 463.958374,123.652519 
	C463.840790,123.388817 463.645020,123.211441 463.061737,122.342407 
	C460.146057,106.611473 450.278381,96.275803 436.408875,88.028313 
	C428.670685,80.916100 421.462494,73.090462 413.071533,66.856949 
	C400.109467,57.227631 386.338440,48.687237 372.498169,39.154221 
	C362.934113,34.787201 353.370026,30.420183 344.746216,26.017408 
	C349.009888,25.658665 353.296326,25.467779 357.530640,24.892876 
	C361.579437,24.343163 363.984222,21.065252 362.847900,17.512926 
	C361.774719,14.158059 359.415955,12.491608 355.600616,13.636410 
	C353.409882,14.293758 351.104126,14.582677 348.839508,14.976250 
	C341.753662,16.207712 340.173859,19.723598 343.064484,26.071632 
	C339.188385,24.751274 335.378815,23.170527 331.423523,22.160307 
	C320.394470,19.343414 309.412323,16.107822 298.209320,14.272806 
	C286.916656,12.423105 275.396576,11.528429 263.947357,11.189916 
	C252.568176,10.853472 241.120453,11.317461 229.765396,12.219092 
	C222.196152,12.820117 214.736603,14.802939 206.385818,16.022665 
	C200.280365,17.405300 194.174896,18.787935 187.345016,20.072630 
	C185.585983,20.750151 183.826950,21.427671 181.314133,22.188822 
	C177.530609,23.485594 173.747101,24.782364 170.260101,25.381668 
	C173.670502,20.100210 172.015961,16.139393 165.924789,15.024332 
	C163.494934,14.579518 160.974655,14.424785 158.647247,13.670154 
	C154.833221,12.433510 152.296143,14.026309 151.216171,17.294043 
	C149.949524,21.126602 152.045166,23.999813 155.825653,24.675934 
	C160.502182,25.512304 165.312912,25.598211 169.752060,26.693747 
	C147.788757,34.737591 127.631645,46.058842 108.334755,60.198547 
	C95.597313,70.819817 83.053871,81.560196 72.098282,94.178802 
	C59.299545,108.920349 48.279469,124.789215 39.126160,141.930954 
	C34.256050,151.051376 30.391314,160.708679 25.808969,169.222672 
	C25.371246,164.511703 25.408384,159.689270 24.337265,155.126999 
	C23.557749,151.806778 21.033663,149.477921 16.862793,150.907120 
	C13.242622,152.147629 12.797031,154.646683 13.532397,157.934555 
	C14.176680,160.815201 14.483846,163.770584 15.109245,166.656265 
	C15.819020,169.931244 17.880249,172.012787 21.317930,171.843689 
	C22.942757,171.763779 24.519176,170.699722 26.015875,170.850372 
	C17.554842,192.776657 12.770039,215.653442 11.263732,238.933380 
	C9.774516,261.949188 11.087667,284.981140 15.867788,307.784973 
	C21.330254,333.843933 30.683969,358.363007 44.132713,381.149567 
	C58.953705,406.261169 77.343468,428.492310 100.243530,446.967285 
	C116.204094,459.843750 133.247955,470.778809 151.590485,479.777100 
	C157.635132,482.742401 163.894196,485.270660 169.140076,488.000244 
	C164.291443,488.600647 159.380447,488.902344 154.614243,489.897522 
	C150.912216,490.670502 150.018066,494.159485 151.393753,496.937347 
	C152.233963,498.634003 155.280716,499.835358 157.477966,500.104675 
	C159.979538,500.411346 162.641174,499.447571 165.228821,499.009796 
	C172.310577,497.811768 173.926163,494.013977 170.736740,487.992310 
	C174.469757,489.305237 178.202774,490.618134 182.603821,492.226349 
	C184.430359,492.771667 186.256912,493.317017 188.890320,493.979767 
	C189.857269,494.111420 190.861542,494.117828 191.785645,494.393250 
	C209.202209,499.584320 227.075317,502.213104 245.158508,502.863922 
	C256.365967,503.267242 267.670898,502.874115 278.841675,501.851257 
	C290.166809,500.814270 301.380737,498.562744 313.335602,496.922729 
	C316.597839,496.067383 319.899231,495.337128 323.114105,494.330505 
	C329.739441,492.256134 336.318604,490.034149 343.152588,488.668884 
M473.137756,459.192841 
	C466.396545,458.594788 464.792419,465.210999 460.684113,468.278748 
	C457.888580,470.366180 458.500580,473.821777 460.905884,476.136749 
	C463.235992,478.379303 466.210663,478.891571 468.904236,476.455811 
	C471.235016,474.348145 473.497406,472.146088 475.615997,469.826752 
	C479.285400,465.809570 478.675781,462.557770 473.137756,459.192841 
M462.611572,47.850910 
	C464.053040,49.366058 465.478119,50.897236 466.939575,52.392849 
	C469.577393,55.092281 472.701782,55.991291 475.706848,53.443970 
	C478.614594,50.979134 478.851318,47.774162 476.184814,44.790157 
	C474.425110,42.820946 472.517151,40.978207 470.606323,39.151302 
	C466.769287,35.482719 463.280090,34.976036 460.745911,37.968639 
	C457.810577,41.434956 458.881897,44.632717 462.611572,47.850910 
M48.670464,36.074966 
	C45.097134,38.934536 41.306664,41.567703 38.016914,44.722946 
	C35.219669,47.405819 35.322449,50.749439 38.203037,53.484653 
	C40.744564,55.897911 44.869019,55.103603 47.421684,52.036194 
	C48.563061,50.664658 49.947742,49.467262 50.924335,47.993576 
	C52.389336,45.782864 54.687336,43.335629 54.559452,41.107899 
	C54.457527,39.332291 51.260601,37.734356 48.670464,36.074966 
M54.916100,471.645844 
	C51.533833,467.755157 48.437111,463.539062 44.597244,460.169922 
	C43.428028,459.144043 39.455975,459.660370 38.143520,460.912537 
	C36.819794,462.175476 36.231567,465.707977 37.059162,467.391968 
	C38.461514,470.245453 41.104488,472.555359 43.451027,474.865082 
	C48.448662,479.784424 52.245796,478.919128 54.916100,471.645844 
M492.563721,78.901360 
	C493.003632,78.214287 493.976868,77.318321 493.802063,76.871986 
	C491.738373,71.603134 489.796112,66.237968 487.055298,61.325867 
	C486.532623,60.389088 481.875793,60.427734 480.573639,61.610161 
	C479.102875,62.945759 478.455109,66.254227 478.913788,68.390305 
	C479.553101,71.367569 481.434113,74.120155 482.996582,76.846947 
	C485.104919,80.526367 487.970612,82.126396 492.563721,78.901360 
M489.861938,449.330902 
	C491.036255,446.623779 492.239349,443.928711 493.377319,441.206390 
	C494.727722,437.975922 494.081848,435.557678 490.722961,433.880249 
	C487.125671,432.083771 484.972046,434.134369 483.278748,436.615204 
	C481.623962,439.039581 480.661377,441.924164 479.181793,444.483521 
	C477.169708,447.963959 477.790588,450.932678 481.071320,452.913208 
	C484.755524,455.137329 487.654144,453.781494 489.861938,449.330902 
M26.805300,452.896179 
	C29.115269,452.783234 31.842297,453.375031 33.602615,452.333282 
	C34.999378,451.506744 36.257984,448.326935 35.746155,446.809998 
	C34.440662,442.940735 32.547623,439.064240 29.999634,435.909393 
	C28.788254,434.409485 25.354620,433.680878 23.270405,434.144348 
	C19.974447,434.877167 19.220976,437.938049 20.532249,440.957672 
	C22.235117,444.879028 24.270784,448.655914 26.805300,452.896179 
M21.862000,69.489639 
	C21.525557,70.417633 21.251106,71.374008 20.841650,72.268585 
	C19.292728,75.652626 19.714901,78.355232 23.337545,80.097794 
	C27.117172,81.915871 29.345818,79.749023 30.965076,76.876938 
	C32.575920,74.019783 33.726562,70.904953 35.111584,67.918221 
	C36.694798,64.504105 35.415382,62.228828 32.273247,60.705315 
	C29.144297,59.188202 26.813486,60.466187 25.109686,63.066383 
	C23.938679,64.853470 23.087812,66.850342 21.862000,69.489639 
M17.724400,343.135162 
	C16.405424,347.252686 15.137131,351.387329 13.753044,355.482849 
	C12.400643,359.484619 13.246436,362.283875 17.693794,363.328644 
	C20.871458,364.075195 24.162788,361.632812 24.879532,357.639160 
	C25.459114,354.409790 25.945501,351.105164 25.917097,347.838806 
	C25.873688,342.846954 23.672773,341.528046 17.724400,343.135162 
M499.546295,361.905914 
	C502.403595,355.701233 499.226776,350.085693 497.442505,344.488007 
	C497.042816,343.234253 493.519318,341.862610 492.043671,342.358704 
	C490.350891,342.927856 488.474335,345.399109 488.224091,347.252838 
	C487.819092,350.252960 488.543823,353.444275 489.028076,356.517578 
	C490.006042,362.723907 492.998169,364.443970 499.546295,361.905914 
M501.649780,413.023895 
	C501.530060,410.928955 501.959503,408.567230 501.113159,406.825317 
	C500.460815,405.482758 498.182617,404.157837 496.669891,404.204468 
	C494.846985,404.260590 491.935242,405.393372 491.484467,406.730682 
	C490.138885,410.722534 489.195770,415.051910 489.266754,419.229553 
	C489.299530,421.157654 492.045166,424.560944 493.580902,424.572266 
	C495.687012,424.587860 498.352325,422.402161 499.765381,420.433136 
	C500.984558,418.734161 500.787964,416.019257 501.649780,413.023895 
M403.394928,19.795103 
	C407.963257,25.037785 414.396027,24.303286 420.282318,24.508810 
	C421.731781,24.559418 424.461456,21.262072 424.484955,19.476013 
	C424.508453,17.685732 422.235474,15.101572 420.340637,14.227237 
	C417.434998,12.886485 414.016144,12.530471 410.770020,12.084663 
	C405.684967,11.386306 403.296204,13.674537 403.394928,19.795103 
M23.861549,410.942444 
	C23.621849,410.327698 23.201756,409.721741 23.171339,409.096802 
	C22.952358,404.597656 20.154837,403.571747 16.355570,404.057739 
	C12.053821,404.608032 11.775949,407.952209 12.090985,411.145569 
	C12.393574,414.212738 13.243176,417.245483 14.058193,420.237274 
	C14.936719,423.462158 17.042011,425.633118 20.544392,424.828583 
	C23.829144,424.074066 25.399782,421.572479 24.954147,418.099335 
	C24.682932,415.985535 24.292946,413.886932 23.861549,410.942444 
M501.946350,102.641785 
	C501.278198,99.600761 501.203125,96.229027 499.751129,93.625122 
	C498.624512,91.604759 495.792358,89.356140 493.693481,89.331558 
	C490.483978,89.293961 488.620300,92.154442 489.058716,95.637383 
	C489.425873,98.554214 490.272369,101.411850 490.618683,104.329872 
	C491.082245,108.236031 492.756714,110.316841 497.019470,110.033791 
	C501.397339,109.743111 501.881287,106.842667 501.946350,102.641785 
M15.050190,109.788216 
	C18.021423,110.077423 21.546988,110.875549 22.684160,107.151825 
	C23.919653,103.106133 24.702496,98.791756 24.766083,94.580704 
	C24.792757,92.814125 22.806822,90.381004 21.086163,89.444054 
	C19.905653,88.801239 17.181360,89.713715 15.885611,90.806549 
	C12.258413,93.865700 11.493473,105.443268 15.050190,109.788216 
M406.257355,491.416351 
	C403.791931,493.199707 401.879364,495.553497 403.318939,498.559143 
	C404.850281,501.756439 408.046875,502.548401 411.436127,501.909210 
	C414.021271,501.421661 416.535645,500.462372 419.133545,500.160126 
	C423.588440,499.641785 424.643280,496.912567 423.994781,493.150879 
	C423.267487,488.932068 419.988708,488.754456 416.694916,489.229431 
	C413.443542,489.698303 410.237701,490.482605 406.257355,491.416351 
M446.605286,22.869911 
	C444.309753,21.945435 441.982849,20.232552 439.727631,20.322184 
	C437.549866,20.408733 434.283569,21.909344 433.634460,23.606758 
	C432.976837,25.326471 434.324371,28.711632 435.901001,30.170988 
	C438.121185,32.226013 441.233582,33.786530 444.205902,34.413044 
	C446.640991,34.926319 450.010040,34.511051 451.848663,33.076500 
	C453.005707,32.173744 452.699738,28.407063 451.922943,26.351011 
	C451.375763,24.902683 448.934052,24.170101 446.605286,22.869911 
M80.126457,22.474108 
	C79.275818,21.760521 78.533958,20.765173 77.553902,20.386793 
	C74.744751,19.302237 63.114426,23.423006 62.032394,26.203299 
	C61.259460,28.189344 61.002220,30.900236 61.769276,32.774246 
	C62.267384,33.991199 65.191994,35.128578 66.729988,34.818134 
	C70.040970,34.149792 73.149651,32.499779 76.357697,31.295668 
	C80.237305,29.839491 81.842888,27.246504 80.126457,22.474108 
M108.960571,21.527225 
	C109.554382,19.446785 111.235313,16.719259 110.476280,15.444064 
	C109.447838,13.716223 106.567207,12.249708 104.448341,12.204443 
	C101.066551,12.132200 97.674095,13.429368 94.256142,13.950817 
	C90.307846,14.553177 89.650627,17.184315 89.915718,20.477442 
	C90.218460,24.238270 93.011749,25.229465 95.928345,24.849783 
	C100.124435,24.303537 104.225464,23.027107 108.960571,21.527225 
M445.913818,491.555969 
	C447.593750,490.545227 449.842041,489.906860 450.809967,488.429596 
	C452.020325,486.582245 453.062775,483.779144 452.496155,481.894135 
	C452.080261,480.510498 448.607574,478.774017 447.110474,479.226044 
	C442.659546,480.569946 438.289612,482.573608 434.388000,485.093475 
	C433.297943,485.797546 433.195557,489.544647 434.014923,491.225677 
	C434.704651,492.640717 437.366302,493.716827 439.198029,493.784821 
	C441.182861,493.858521 443.217438,492.591309 445.913818,491.555969 
M73.872360,493.856934 
	C76.968750,494.340302 79.944588,493.624969 80.527145,490.395172 
	C80.885048,488.410919 79.975609,485.317505 78.497894,484.077606 
	C75.923965,481.917938 72.604286,480.102722 69.343109,479.485229 
	C66.901802,479.022980 62.896679,479.833649 61.655910,481.562103 
	C59.488640,484.581177 61.340950,487.959717 64.607506,489.771057 
	C67.317589,491.273804 70.279404,492.322540 73.872360,493.856934 
M106.837646,501.856415 
	C108.208015,499.782104 110.304970,497.824615 110.664543,495.587830 
	C110.866394,494.332214 108.459366,491.850830 106.763474,491.264526 
	C103.241127,490.046722 99.389061,489.140137 95.713127,489.268433 
	C93.749397,489.337036 90.924309,491.444489 90.171654,493.310760 
	C89.005554,496.202148 90.028809,499.280334 93.917130,499.974945 
	C97.939194,500.693542 101.981056,501.301208 106.837646,501.856415 
M122.772568,492.835632 
	C120.290558,494.793732 118.757912,497.475769 120.795380,500.118835 
	C122.018692,501.705841 124.746567,502.569580 126.923584,502.880249 
	C130.016937,503.321716 133.450562,503.644623 136.312149,502.710785 
	C138.508652,501.993958 141.342804,499.402069 141.567352,497.385162 
	C141.889801,494.488983 139.738297,491.822845 135.882034,491.990143 
	C131.737640,492.169891 127.587196,492.210358 122.772568,492.835632 
M391.858246,20.635296 
	C395.085083,16.220081 394.475250,11.901658 390.202545,11.341301 
	C385.793671,10.763088 381.167328,10.716359 376.805634,11.447810 
	C375.007233,11.749399 372.467316,14.659018 372.424683,16.434254 
	C372.381653,18.228045 374.870422,21.487494 376.498688,21.652575 
	C381.345734,22.143988 386.314972,21.430517 391.858246,20.635296 
M127.795212,21.999468 
	C130.452866,21.997381 133.116089,21.885176 135.766830,22.019451 
	C139.582672,22.212749 141.838013,19.686337 141.549774,16.745943 
	C141.350143,14.709460 138.595276,12.032500 136.423462,11.301379 
	C133.582199,10.344902 130.189163,11.057327 127.034668,10.993647 
	C123.433861,10.920955 120.133415,11.515834 120.109474,16.002493 
	C120.086586,20.293522 122.685280,22.203098 127.795212,21.999468 
M372.522400,496.015442 
	C371.722076,500.482513 374.207397,502.518524 378.131256,502.902222 
	C381.578796,503.239349 385.258698,503.621521 388.503754,502.748627 
	C390.632751,502.175903 393.295166,499.635101 393.716187,497.567871 
	C394.387573,494.271332 391.771667,492.183411 388.291718,492.042877 
	C384.982239,491.909271 381.599579,491.620056 378.372559,492.150452 
	C376.428497,492.469940 374.720184,494.223907 372.522400,496.015442 
M502.999634,383.521027 
	C502.954773,381.371368 503.146881,379.183990 502.811676,377.080597 
	C502.254700,373.585175 499.426666,372.369843 496.600342,373.213379 
	C494.784424,373.755371 492.547760,375.988953 492.222900,377.777313 
	C491.553894,381.460663 491.852448,385.366180 492.103760,389.157013 
	C492.347534,392.834747 494.869781,394.063324 498.286255,393.993805 
	C501.649750,393.925262 502.976685,392.055450 502.987793,388.923462 
	C502.993073,387.433685 502.995667,385.943939 502.999634,383.521027 
M21.996759,378.849426 
	C22.174538,375.420380 21.221741,372.988129 17.159599,372.997345 
	C13.105676,373.006531 11.022039,374.910126 11.011329,378.994934 
	C11.003078,382.141327 11.084164,385.290222 10.983842,388.433472 
	C10.877640,391.761017 12.009358,393.884552 15.668353,393.986328 
	C19.346151,394.088623 21.775866,392.654968 21.949362,388.705048 
	C22.080053,385.729675 21.989944,382.744659 21.996759,378.849426 
M20.459333,139.913559 
	C20.801905,134.296600 21.519838,128.656509 21.176075,123.081871 
	C21.105795,121.942169 17.027311,120.262856 14.844665,120.332970 
	C13.518948,120.375557 11.604022,123.134789 11.172321,124.961578 
	C10.541465,127.631088 10.984475,130.559387 11.006092,133.377106 
	C11.060123,140.419708 12.709879,141.734558 20.459333,139.913559 
M492.001831,134.237732 
	C491.717285,137.936584 492.346832,140.923721 497.010193,140.988480 
	C501.380737,141.049164 502.906189,139.320755 502.989410,133.982727 
	C503.030701,131.334457 502.903168,128.680817 503.021362,126.037186 
	C503.174896,122.603912 502.291931,120.125031 498.289673,120.018234 
	C494.279877,119.911240 492.065338,121.738068 492.015961,125.862419 
	C491.986206,128.345428 492.004883,130.829025 492.001831,134.237732 
z"/>
<path fill="#50B7E3" opacity="1.000000" stroke="none" 
	d="
M372.910522,39.685017 
	C386.338440,48.687237 400.109467,57.227631 413.071533,66.856949 
	C421.462494,73.090462 428.670685,80.916100 436.204193,88.278580 
	C434.432068,87.970985 432.860535,87.424232 431.297760,86.853607 
	C404.039001,76.900589 374.195862,91.545303 365.753998,119.264885 
	C363.379669,127.061150 362.136780,135.025284 364.557220,143.273499 
	C370.142181,162.305603 379.519257,179.540405 389.490204,196.464752 
	C395.647247,206.915527 402.496521,216.958481 408.928558,227.510391 
	C408.267242,228.651978 407.881714,229.935913 407.130096,230.207825 
	C402.032227,232.052094 397.974457,235.107880 394.260925,239.097626 
	C391.850372,241.687515 389.559998,240.234573 388.417450,236.324829 
	C387.953430,234.737076 386.850403,233.336060 386.038147,231.850082 
	C384.629150,233.088882 382.882782,234.103790 381.881317,235.613022 
	C379.780487,238.778885 381.236816,241.287384 384.063782,243.206818 
	C386.809662,245.071213 390.117737,246.429199 392.221375,248.843796 
	C395.506592,252.614532 397.117767,250.760620 398.971436,247.832733 
	C401.282471,244.182465 403.460144,240.436722 405.963623,236.923325 
	C407.543335,234.706390 410.034760,232.439240 412.463684,235.057953 
	C413.408875,236.076981 412.777130,240.332748 411.475739,241.365891 
	C404.412323,246.973373 398.390869,254.198334 388.863098,256.246765 
	C384.442841,257.197113 380.947540,259.827606 379.459778,264.788727 
	C381.728790,265.014069 383.320251,265.172150 384.911713,265.330200 
	C385.157227,265.729309 385.402771,266.128387 385.648285,266.527496 
	C384.187347,267.726440 382.592102,268.801300 381.321747,270.176331 
	C380.680878,270.870026 380.628601,272.107513 380.310150,273.099121 
	C381.357178,273.217316 382.760468,273.822784 383.386475,273.365112 
	C385.521454,271.804260 387.339661,269.818512 389.363159,268.093964 
	C390.778809,266.887451 392.332275,265.842651 394.050659,264.556061 
	C396.237885,268.182831 394.481873,269.699310 392.232819,271.183105 
	C388.762909,273.472351 385.144379,275.627991 382.072266,278.379913 
	C380.964966,279.371796 380.745789,281.994659 381.000031,283.745636 
	C381.730225,288.774384 383.656738,293.725494 383.739838,298.729919 
	C383.869171,306.517365 378.771698,309.737640 371.762451,306.508972 
	C366.658112,304.157806 362.011139,300.813782 357.159912,297.912933 
	C352.121521,294.900146 350.651031,295.854462 349.918365,301.722351 
	C349.285400,306.791992 348.678192,312.058807 346.802887,316.734436 
	C343.893219,323.989014 336.556152,327.236908 330.111053,324.456787 
	C325.707428,322.557251 321.744049,322.692017 317.641541,324.605103 
	C312.974121,326.781616 308.156616,328.741760 303.776550,331.407562 
	C294.093903,337.300537 289.537170,348.080322 291.479431,359.321503 
	C294.078247,374.362640 308.194458,388.802795 323.235657,391.806519 
	C332.166687,393.590057 340.929504,390.125458 344.509186,383.360870 
	C346.248260,380.074463 346.741699,377.152313 341.827026,376.535034 
	C338.692352,376.141388 338.213623,373.966217 337.364288,371.431213 
	C335.310547,365.301544 342.383789,364.605988 343.495056,360.430267 
	C343.714355,359.606232 344.693604,358.418610 345.380280,358.377991 
	C349.396454,358.140503 350.124481,354.858826 351.839325,352.256775 
	C352.758331,350.862366 355.606232,349.059784 356.229462,349.474792 
	C357.888519,350.579620 359.909546,352.881195 359.767883,354.533875 
	C359.565155,356.898956 357.857178,359.342560 356.261963,361.326447 
	C354.403961,363.637177 351.372864,365.151459 349.978058,367.642517 
	C348.806458,369.734924 348.057159,373.803589 349.227600,375.110291 
	C351.772186,377.951050 350.568878,379.718353 349.258514,382.084503 
	C348.601959,383.269989 348.323364,384.664825 347.912781,385.977844 
	C347.951752,385.990692 347.976746,385.912567 347.635223,385.825012 
	C347.169586,386.164032 347.045471,386.590637 346.970032,387.018005 
	C347.018707,387.018768 347.021118,386.921448 346.708008,386.962585 
	C346.239563,387.390015 346.084229,387.776276 345.712402,388.400909 
	C344.718140,389.470459 343.956970,390.317871 343.160004,391.130157 
	C338.541290,395.837677 339.492065,399.348907 345.973755,401.545593 
	C350.258728,408.999146 350.203369,409.252258 343.440979,414.691772 
	C341.891754,415.937866 339.895874,416.936615 338.940216,418.545135 
	C337.236694,421.412231 335.414337,424.573792 335.060272,427.769409 
	C334.740509,430.655304 333.745453,431.537903 331.350189,432.601196 
	C318.510620,438.300903 305.784332,444.255768 292.684753,450.163147 
	C290.929688,450.879211 289.508820,451.554565 287.820923,451.942627 
	C285.831024,451.026001 284.108154,450.396637 282.606995,449.477417 
	C285.010162,446.779419 285.831879,443.768402 283.041199,441.873596 
	C281.351349,440.726257 278.000214,440.711212 276.020782,441.592316 
	C272.454865,443.179626 269.358612,445.821991 265.670654,447.943054 
	C242.875397,443.831818 221.385696,436.934509 200.949234,426.937988 
	C171.327652,412.448578 145.645218,392.693207 123.708405,368.103912 
	C119.861122,363.791412 116.556259,358.994965 113.462357,354.371674 
	C135.167084,354.914948 147.501297,345.994995 152.968277,325.507263 
	C155.108444,317.486816 155.930161,309.109436 158.156128,301.118500 
	C160.188675,293.821869 162.473694,286.357819 166.159210,279.819733 
	C170.713226,271.740997 177.638763,269.410309 185.211700,272.658752 
	C194.521133,276.652100 203.639679,276.251892 213.010727,273.575012 
	C216.688156,272.524536 220.421448,271.669495 224.098785,270.618713 
	C235.102570,267.474518 245.455399,268.519043 255.147430,274.970947 
	C264.567474,281.241730 274.750702,285.096802 286.275085,282.856232 
	C298.846283,280.412170 311.439880,277.977264 323.856354,274.869568 
	C340.990479,270.581024 349.870087,258.101929 348.098999,240.427017 
	C346.016235,219.642181 334.747192,203.766586 318.819183,191.237610 
	C315.320404,188.485474 309.586945,187.980362 304.799469,187.651764 
	C301.091614,187.397263 299.161072,186.097824 298.246857,182.906296 
	C297.331787,179.711624 296.667725,176.441818 295.971313,173.188309 
	C293.635376,162.274963 287.043640,156.049210 275.872345,154.797302 
	C271.076935,154.259903 266.298584,153.364273 261.491211,153.176605 
	C244.925644,152.529968 231.834869,145.311920 221.506241,132.636581 
	C214.037766,123.471237 206.777344,114.127289 199.050323,105.186020 
	C195.828842,101.458298 191.974823,97.992500 187.756165,95.520851 
	C185.330185,94.099503 181.217514,93.919571 178.549026,94.951660 
	C174.973267,96.334656 174.525208,100.363258 175.088165,104.042183 
	C175.414490,106.174683 175.945099,108.282158 176.486572,110.374283 
	C177.952393,116.037804 176.701248,121.228554 172.514465,125.049828 
	C169.016830,128.242111 164.795944,130.732544 160.647446,133.099243 
	C154.888153,136.384872 148.896957,139.264069 142.731323,142.099380 
	C141.780075,140.934769 141.134186,139.963470 140.420319,139.044998 
	C128.558777,123.783348 107.905975,119.346031 91.117210,128.442917 
	C74.300522,137.554916 66.979813,156.560455 73.387001,174.957977 
	C75.242035,180.284454 77.625343,185.426971 79.372421,190.747116 
	C73.670128,192.581497 71.544250,196.739914 69.922157,201.737915 
	C68.434074,206.322983 66.012154,210.604965 63.785568,214.703796 
	C63.061691,211.619247 62.021225,208.827972 62.141708,206.087753 
	C62.579136,196.139053 62.956810,186.152512 64.166130,176.279327 
	C68.455299,141.261536 79.790092,108.615891 98.061195,78.404472 
	C101.730438,72.337372 105.362068,66.247520 109.011032,60.168159 
	C127.631645,46.058842 147.788757,34.737591 169.867401,26.345774 
	C169.982758,25.997801 169.963577,26.079134 169.963577,26.079134 
	C173.747101,24.782364 177.530609,23.485594 181.678406,22.502487 
	C180.479187,27.412863 182.224640,30.111670 186.798538,31.325235 
	C189.193939,31.960794 191.527176,32.827366 193.900742,33.549290 
	C196.976791,34.484879 199.708908,33.955345 200.854477,30.716129 
	C202.046387,27.345867 200.545029,25.011984 197.149811,23.786615 
	C194.086960,22.681187 191.093506,21.383482 188.069443,20.170572 
	C194.174896,18.787935 200.280365,17.405300 206.941101,16.382584 
	C210.409302,21.416367 213.322250,26.090233 215.837982,30.836483 
	C213.871841,32.496738 211.125961,34.034054 211.054993,35.686279 
	C210.979416,37.445713 213.266296,39.481960 214.848114,41.072803 
	C215.828903,42.059185 217.417068,42.441639 218.704712,43.480820 
	C218.271667,46.779186 217.866531,49.691910 217.460632,52.610031 
	C226.177536,53.100937 228.100586,55.565536 226.085037,64.350861 
	C233.172989,68.254128 240.310074,72.459557 247.688034,76.188393 
	C261.713104,83.276703 276.406158,86.444008 292.341370,82.892303 
	C296.922913,85.800606 301.227722,88.503487 305.669922,91.541275 
	C308.912720,99.573730 312.090698,107.242981 315.106506,114.975487 
	C319.568787,126.416634 323.672974,138.004791 328.429260,149.320358 
	C330.389862,153.984818 332.300140,158.271606 331.761139,163.579803 
	C331.205994,169.047058 334.553833,173.702255 339.812958,173.647064 
	C346.308868,173.578903 352.837769,171.974716 359.235626,170.520508 
	C360.839355,170.155991 362.230774,167.981873 363.302948,166.363327 
	C364.832733,164.054001 364.384857,162.482437 361.238617,161.858185 
	C351.401245,159.906387 349.285614,156.561462 351.405762,146.904083 
	C352.640350,141.280594 353.862335,135.654312 355.047516,130.015976 
	C355.005035,130.002670 354.978668,130.087677 355.243439,130.220276 
	C355.651428,129.993286 355.794617,129.633667 356.206238,129.031433 
	C357.010071,126.815620 357.545471,124.842438 358.343872,122.575714 
	C360.158752,118.434349 361.791199,114.616676 363.244354,110.731941 
	C365.671021,104.244576 367.140778,97.731117 362.503937,91.437462 
	C368.475189,88.973175 371.833923,84.450752 371.990448,78.698868 
	C372.181976,71.659828 371.202179,64.567139 370.431488,57.530216 
	C369.751831,51.324368 369.421631,45.266644 372.910522,39.685017 
M332.355194,413.757263 
	C334.835876,411.447540 335.938171,408.787384 333.412384,405.973969 
	C330.670837,402.920227 327.812653,404.134125 325.125580,406.336945 
	C323.208832,407.908295 321.251617,409.430267 319.328369,410.993805 
	C316.696533,413.133270 315.465118,415.780334 317.735474,418.717010 
	C319.987946,421.630554 322.824005,421.288940 325.557434,419.117065 
	C327.627563,417.472321 329.707062,415.839325 332.355194,413.757263 
M302.579529,436.145721 
	C304.471771,434.791565 307.021790,433.815033 308.075531,431.979462 
	C309.180542,430.054565 309.739410,426.854919 308.836609,425.074615 
	C308.228943,423.876251 304.272156,423.250000 302.515259,424.003601 
	C299.227966,425.413574 296.083099,427.663605 293.617035,430.264038 
	C292.399414,431.548035 292.015350,434.757294 292.763702,436.413239 
	C293.366638,437.747498 296.198669,438.496643 298.114685,438.662384 
	C299.331665,438.767639 300.682098,437.330200 302.579529,436.145721 
z"/>
<path fill="#4FADD6" opacity="1.000000" stroke="none" 
	d="
M282.385284,449.767273 
	C284.108154,450.396637 285.831024,451.026001 287.655151,452.238281 
	C285.433838,456.945770 286.504578,459.192108 291.106415,459.023529 
	C295.416809,458.865570 299.704498,457.645844 304.001587,457.649048 
	C317.298706,457.658936 330.599640,457.917419 343.887482,458.399170 
	C345.567963,458.460083 347.596283,460.115845 348.701599,461.600098 
	C349.738159,462.992004 349.764374,465.136353 350.397827,467.575897 
	C349.398041,468.042572 347.822510,468.857208 346.187286,469.525909 
	C341.874451,471.289734 337.448242,472.808563 333.259918,474.825256 
	C331.985199,475.439056 330.261566,477.808197 330.592743,478.595886 
	C331.903687,481.713806 329.933136,482.786041 328.085815,484.265594 
	C322.904327,488.415710 317.786407,492.645111 312.643372,496.843201 
	C301.380737,498.562744 290.166809,500.814270 278.841675,501.851257 
	C267.670898,502.874115 256.365967,503.267242 245.158508,502.863922 
	C227.075317,502.213104 209.202209,499.584320 191.785645,494.393250 
	C190.861542,494.117828 189.857269,494.111420 188.668640,493.619873 
	C191.561310,492.159241 195.026581,491.573364 197.665298,489.774841 
	C199.392014,488.597900 201.154434,485.277069 200.636246,483.628204 
	C200.130722,482.019806 196.816528,480.639008 194.605637,480.409760 
	C192.482254,480.189575 190.185333,481.551483 187.977219,482.257355 
	C181.667038,484.274597 181.009064,485.340668 181.935791,491.931061 
	C178.202774,490.618134 174.469757,489.305237 170.355560,487.999664 
	C169.974396,488.007019 170.055206,487.998779 170.055206,487.998779 
	C163.894196,485.270660 157.635132,482.742401 151.590485,479.777100 
	C133.247955,470.778809 116.204094,459.843750 100.243530,446.967285 
	C77.343468,428.492310 58.953705,406.261169 44.132713,381.149567 
	C30.683969,358.363007 21.330254,333.843933 15.867788,307.784973 
	C11.087667,284.981140 9.774516,261.949188 11.263732,238.933380 
	C12.770039,215.653442 17.554842,192.776657 26.028339,170.447449 
	C26.040802,170.044540 26.072783,170.123642 26.072781,170.123642 
	C30.391314,160.708679 34.256050,151.051376 39.126160,141.930954 
	C48.279469,124.789215 59.299545,108.920349 72.098282,94.178802 
	C83.053871,81.560196 95.597313,70.819817 108.672897,60.183353 
	C105.362068,66.247520 101.730438,72.337372 98.061195,78.404472 
	C79.790092,108.615891 68.455299,141.261536 64.166130,176.279327 
	C62.956810,186.152512 62.579136,196.139053 62.141708,206.087753 
	C62.021225,208.827972 63.061691,211.619247 63.703308,214.961060 
	C63.529663,215.972977 63.222176,216.410934 62.595901,216.986465 
	C58.560295,218.910583 54.996723,221.195999 51.098911,222.393311 
	C37.559578,226.552277 29.756350,236.362000 30.189379,250.407394 
	C31.294714,286.259033 45.485931,315.802795 73.901474,337.978333 
	C85.038513,346.669678 97.448601,353.014191 112.242798,354.038116 
	C112.665741,354.247833 112.833313,354.334930 113.000885,354.422028 
	C116.556259,358.994965 119.861122,363.791412 123.708405,368.103912 
	C145.645218,392.693207 171.327652,412.448578 200.949234,426.937988 
	C221.385696,436.934509 242.875397,443.831818 265.636536,448.345154 
	C266.157501,455.327759 269.167572,457.186798 274.700439,454.159058 
	C277.288208,452.742920 279.825256,451.234100 282.385284,449.767273 
M216.434616,482.987000 
	C219.984482,481.591217 223.872391,480.692352 226.948120,478.599670 
	C228.599945,477.475830 228.856720,474.301544 229.742966,472.052460 
	C227.503357,471.179962 225.179184,469.440216 223.044968,469.648315 
	C220.195450,469.926208 217.234909,471.336273 214.813278,472.982635 
	C213.013641,474.206207 210.859940,476.644135 210.962860,478.419434 
	C211.056732,480.038361 213.974335,481.493591 216.434616,482.987000 
M254.731522,455.980072 
	C250.330719,457.593414 245.669861,458.752899 241.660873,461.050018 
	C240.120300,461.932770 240.064941,465.407532 239.332825,467.701202 
	C241.636948,468.413757 244.092529,469.994263 246.207855,469.625122 
	C249.023636,469.133728 251.636093,467.231659 254.225677,465.743744 
	C258.804138,463.113129 259.091400,460.404419 254.731522,455.980072 
z"/>
<path fill="#DADE2C" opacity="1.000000" stroke="none" 
	d="
M347.873840,385.964996 
	C348.323364,384.664825 348.601959,383.269989 349.258514,382.084503 
	C350.568878,379.718353 351.772186,377.951050 349.227600,375.110291 
	C348.057159,373.803589 348.806458,369.734924 349.978058,367.642517 
	C351.372864,365.151459 354.403961,363.637177 356.261963,361.326447 
	C357.857178,359.342560 359.565155,356.898956 359.767883,354.533875 
	C359.909546,352.881195 357.888519,350.579620 356.229462,349.474792 
	C355.606232,349.059784 352.758331,350.862366 351.839325,352.256775 
	C350.124481,354.858826 349.396454,358.140503 345.380280,358.377991 
	C344.693604,358.418610 343.714355,359.606232 343.495056,360.430267 
	C342.383789,364.605988 335.310547,365.301544 337.364288,371.431213 
	C338.213623,373.966217 338.692352,376.141388 341.827026,376.535034 
	C346.741699,377.152313 346.248260,380.074463 344.509186,383.360870 
	C340.929504,390.125458 332.166687,393.590057 323.235657,391.806519 
	C308.194458,388.802795 294.078247,374.362640 291.479431,359.321503 
	C289.537170,348.080322 294.093903,337.300537 303.776550,331.407562 
	C308.156616,328.741760 312.974121,326.781616 317.641541,324.605103 
	C321.744049,322.692017 325.707428,322.557251 330.111053,324.456787 
	C336.556152,327.236908 343.893219,323.989014 346.802887,316.734436 
	C348.678192,312.058807 349.285400,306.791992 349.918365,301.722351 
	C350.651031,295.854462 352.121521,294.900146 357.159912,297.912933 
	C362.011139,300.813782 366.658112,304.157806 371.762451,306.508972 
	C378.771698,309.737640 383.869171,306.517365 383.739838,298.729919 
	C383.656738,293.725494 381.730225,288.774384 381.000031,283.745636 
	C380.745789,281.994659 380.964966,279.371796 382.072266,278.379913 
	C385.144379,275.627991 388.762909,273.472351 392.232819,271.183105 
	C394.481873,269.699310 396.237885,268.182831 394.050659,264.556061 
	C392.332275,265.842651 390.778809,266.887451 389.363159,268.093964 
	C387.339661,269.818512 385.521454,271.804260 383.386475,273.365112 
	C382.760468,273.822784 381.357178,273.217316 380.310150,273.099121 
	C380.628601,272.107513 380.680878,270.870026 381.321747,270.176331 
	C382.592102,268.801300 384.187347,267.726440 385.648285,266.527496 
	C385.402771,266.128387 385.157227,265.729309 384.911713,265.330200 
	C383.320251,265.172150 381.728790,265.014069 379.459778,264.788727 
	C380.947540,259.827606 384.442841,257.197113 388.863098,256.246765 
	C398.390869,254.198334 404.412323,246.973373 411.475739,241.365891 
	C412.777130,240.332748 413.408875,236.076981 412.463684,235.057953 
	C410.034760,232.439240 407.543335,234.706390 405.963623,236.923325 
	C403.460144,240.436722 401.282471,244.182465 398.971436,247.832733 
	C397.117767,250.760620 395.506592,252.614532 392.221375,248.843796 
	C390.117737,246.429199 386.809662,245.071213 384.063782,243.206818 
	C381.236816,241.287384 379.780487,238.778885 381.881317,235.613022 
	C382.882782,234.103790 384.629150,233.088882 386.038147,231.850082 
	C386.850403,233.336060 387.953430,234.737076 388.417450,236.324829 
	C389.559998,240.234573 391.850372,241.687515 394.260925,239.097626 
	C397.974457,235.107880 402.032227,232.052094 407.130096,230.207825 
	C407.881714,229.935913 408.267242,228.651978 409.303101,227.628372 
	C416.305939,229.014175 418.454926,228.218369 422.021881,222.941406 
	C423.597565,220.610306 425.214264,218.306931 426.992401,216.288666 
	C429.676514,220.062439 431.745575,224.377441 437.540009,222.256973 
	C438.708374,225.846298 439.691040,229.044449 440.570679,232.532715 
	C441.903748,236.523605 443.339905,240.224380 444.415588,244.024475 
	C443.078979,248.012085 442.102814,251.900375 440.802032,257.081604 
	C449.139465,253.738052 447.500763,260.536041 449.462585,262.652405 
	C451.933746,263.081512 453.375122,256.135315 455.768372,262.752197 
	C457.902802,266.860565 459.681885,270.805725 462.274811,274.112823 
	C463.147217,275.225494 466.559570,275.528381 467.950836,274.720337 
	C469.343750,273.911377 470.322388,271.234802 470.274323,269.408691 
	C470.221313,267.394745 468.793671,265.417053 468.304382,263.416687 
	C469.560333,262.323151 470.476654,261.236450 471.195984,260.383392 
	C468.706268,258.551605 466.873627,257.203247 465.174408,255.492462 
	C466.874237,252.040131 468.522339,248.988312 469.983490,245.849457 
	C471.389923,242.828094 470.733154,239.768585 467.550262,239.015503 
	C465.629242,238.560959 462.327667,239.807693 461.107880,241.405609 
	C458.753021,244.490387 457.433197,248.365265 455.360626,251.861481 
	C453.318817,250.827240 451.600647,249.844116 450.245209,248.809265 
	C456.187225,246.760483 457.101379,244.576324 454.428223,239.655167 
	C453.645508,238.214279 452.883942,236.761902 452.570740,235.204941 
	C456.960602,234.933258 461.081848,233.928711 464.789825,234.762314 
	C477.648651,237.653137 483.723785,249.562622 480.676361,264.605438 
	C479.325806,271.272003 478.144043,277.972778 476.501953,284.559540 
	C470.146729,284.210480 468.004974,286.858734 469.954132,292.186249 
	C470.807007,294.517303 471.466736,297.052979 472.888855,299.003906 
	C474.296783,300.935455 476.592834,303.522949 478.428192,303.467499 
	C480.210052,303.413696 481.901550,300.368774 483.758179,298.262695 
	C486.447601,295.899109 488.819061,293.435425 491.713623,292.261475 
	C492.420013,291.974976 494.952393,295.842041 496.432465,297.948822 
	C497.259033,299.125427 497.648193,300.609344 498.234497,301.954742 
	C497.511536,305.235168 496.704163,308.499817 496.086609,311.799957 
	C495.285980,316.078491 494.636566,320.385345 493.661377,324.878113 
	C492.266998,322.184601 491.477173,319.080353 489.870361,316.481171 
	C488.907776,314.924103 486.624481,313.221832 485.014130,313.296509 
	C483.392609,313.371643 481.030701,315.266968 480.454041,316.885284 
	C478.402466,322.642548 484.969666,332.516907 490.995911,333.366028 
	C487.927582,341.775787 485.674835,350.605438 481.609650,358.502014 
	C474.600311,372.117493 466.508026,385.178589 458.755737,398.405182 
	C457.492157,400.561035 455.640503,402.372131 453.538574,404.674011 
	C452.391388,405.219666 451.710632,405.337616 451.149445,405.662231 
	C437.492462,413.562408 424.222900,422.241516 410.113800,429.225250 
	C388.976746,439.687683 366.394836,446.107483 342.935089,448.968079 
	C333.066376,450.171448 323.120911,451.010742 313.188263,451.331268 
	C306.485138,451.547607 299.743378,450.567413 293.018921,450.122467 
	C305.784332,444.255768 318.510620,438.300903 331.350189,432.601196 
	C333.745453,431.537903 334.740509,430.655304 335.060272,427.769409 
	C335.414337,424.573792 337.236694,421.412231 338.940216,418.545135 
	C339.895874,416.936615 341.891754,415.937866 343.440979,414.691772 
	C350.203369,409.252258 350.258728,408.999146 346.316589,401.436768 
	C349.878784,398.289673 353.538940,395.912659 356.306885,392.753876 
	C357.512573,391.377930 357.818512,387.738007 356.825287,386.336212 
	C355.879059,385.000671 352.725128,385.089691 350.510010,384.864502 
	C349.677185,384.779846 348.755219,385.572388 347.873840,385.964996 
M405.171295,333.577789 
	C403.552094,336.173370 401.932922,338.768951 399.663422,341.097961 
	C397.229614,341.290680 394.244507,340.671600 392.489349,341.863586 
	C389.755951,343.719940 387.773956,346.738495 385.630737,349.391510 
	C383.693878,351.789032 383.709625,354.378265 386.048645,356.476288 
	C388.618835,358.781677 391.243561,358.188812 393.500122,355.842133 
	C396.020782,353.220734 398.443024,350.504669 401.616669,348.013733 
	C404.453918,349.808289 405.969025,348.247803 406.815094,345.752197 
	C407.390747,344.054260 407.775482,342.211853 407.808929,340.425842 
	C407.888306,336.185791 409.981079,335.484467 413.627625,336.477966 
	C415.746002,337.055054 418.003571,337.121124 420.198517,337.417175 
	C420.623077,336.945557 421.047638,336.473969 421.472198,336.002350 
	C419.920166,333.637817 418.368134,331.273285 417.078430,328.261566 
	C417.873749,327.211243 418.672821,326.163666 419.463684,325.110016 
	C421.548340,322.332703 421.784607,319.559143 418.864288,317.308441 
	C416.093445,315.172974 413.583160,316.221313 411.536469,318.664703 
	C409.738129,320.811523 408.081757,323.078369 406.259827,325.204041 
	C404.175995,327.635254 403.809143,330.141907 405.171295,333.577789 
M411.438110,289.121552 
	C413.571381,288.042908 415.704651,286.964264 417.837921,285.885620 
	C417.964447,285.362762 418.091003,284.839935 418.217529,284.317078 
	C414.705902,282.462433 411.319672,280.278259 407.635742,278.876465 
	C405.421753,278.034058 401.626709,277.341064 400.529724,278.485657 
	C398.781738,280.309540 398.245026,283.692352 398.060791,286.473175 
	C397.943054,288.250183 399.662994,290.071655 400.062317,291.977295 
	C400.748657,295.252594 401.348572,298.604309 401.402924,301.933411 
	C401.439697,304.186493 399.988220,306.483398 400.113220,308.709564 
	C400.223419,310.671692 401.596619,312.562958 402.412079,314.485504 
	C403.774414,313.055847 405.344147,311.768494 406.447296,310.160980 
	C407.871979,308.084900 408.424408,305.112488 410.255737,303.684662 
	C412.850708,301.661438 412.770782,300.217163 411.646667,297.447266 
	C410.715240,295.152222 411.124084,292.313263 411.438110,289.121552 
M435.286804,303.755798 
	C436.139496,302.536804 437.028992,301.341675 437.837402,300.094025 
	C439.695953,297.225739 439.914062,294.371094 436.865051,292.272156 
	C434.003876,290.302490 431.523407,291.470764 429.593903,294.036469 
	C428.501709,295.488739 427.481903,296.995819 426.440857,298.486145 
	C422.372498,304.310181 422.058105,307.102905 425.612183,309.062714 
	C430.779114,311.911804 432.510925,307.370361 435.286804,303.755798 
M371.269348,364.426483 
	C368.931976,366.792999 366.098389,368.863220 364.442322,371.636566 
	C363.440155,373.314758 363.373901,377.223907 364.480408,378.086243 
	C366.029266,379.293335 369.486847,379.441864 371.358093,378.505280 
	C373.903412,377.231354 375.698700,374.481262 377.858856,372.409302 
	C380.144531,370.217041 381.251556,367.637421 379.310913,364.869965 
	C377.353333,362.078308 374.618378,362.102966 371.269348,364.426483 
M455.315735,272.660583 
	C456.618530,269.427673 455.617950,266.522919 452.422668,266.000519 
	C450.431915,265.675110 447.560150,267.253967 445.966248,268.856140 
	C443.912872,270.920105 442.672485,273.823425 441.211365,276.437561 
	C439.692413,279.155182 439.949615,282.216766 442.804993,283.224426 
	C444.730804,283.904022 448.114655,283.114716 449.626160,281.688965 
	C451.962341,279.485321 453.255280,276.175690 455.315735,272.660583 
z"/>
<path fill="#DADE2C" opacity="1.000000" stroke="none" 
	d="
M372.704346,39.419617 
	C369.421631,45.266644 369.751831,51.324368 370.431488,57.530216 
	C371.202179,64.567139 372.181976,71.659828 371.990448,78.698868 
	C371.833923,84.450752 368.475189,88.973175 362.503937,91.437462 
	C367.140778,97.731117 365.671021,104.244576 363.244354,110.731941 
	C361.791199,114.616676 360.158752,118.434349 358.092834,122.294388 
	C354.517059,119.513618 351.673615,116.401566 348.286194,114.084892 
	C346.933929,113.160072 343.826202,113.255211 342.531738,114.231178 
	C341.256378,115.192726 340.172882,118.700577 340.892731,119.631271 
	C344.562469,124.375755 348.084747,129.711716 355.089966,130.029282 
	C353.862335,135.654312 352.640350,141.280594 351.405762,146.904083 
	C349.285614,156.561462 351.401245,159.906387 361.238617,161.858185 
	C364.384857,162.482437 364.832733,164.054001 363.302948,166.363327 
	C362.230774,167.981873 360.839355,170.155991 359.235626,170.520508 
	C352.837769,171.974716 346.308868,173.578903 339.812958,173.647064 
	C334.553833,173.702255 331.205994,169.047058 331.761139,163.579803 
	C332.300140,158.271606 330.389862,153.984818 328.429260,149.320358 
	C323.672974,138.004791 319.568787,126.416634 315.106506,114.975487 
	C312.090698,107.242981 308.912720,99.573730 306.055847,91.429466 
	C311.342621,87.804688 311.656372,84.542084 307.179901,81.071953 
	C305.360901,79.661858 303.556427,78.061279 301.474487,77.208794 
	C299.245972,76.296288 296.060516,75.070503 294.470734,75.998848 
	C292.901886,76.914955 292.806488,80.354424 292.064697,82.686867 
	C276.406158,86.444008 261.713104,83.276703 247.688034,76.188393 
	C240.310074,72.459557 233.172989,68.254128 226.085037,64.350861 
	C228.100586,55.565536 226.177536,53.100937 217.460632,52.610031 
	C217.866531,49.691910 218.271667,46.779186 219.090591,43.523434 
	C220.280334,43.480759 221.074387,43.741718 221.829147,44.088261 
	C225.188278,45.630615 228.281693,45.419468 229.716568,41.686150 
	C231.154099,37.945976 228.845459,35.789822 225.488571,34.496311 
	C222.385468,33.300598 219.318237,32.011864 216.235199,30.764099 
	C213.322250,26.090233 210.409302,21.416367 207.362167,16.454916 
	C214.736603,14.802939 222.196152,12.820117 229.765396,12.219092 
	C241.120453,11.317461 252.568176,10.853472 263.947357,11.189916 
	C275.396576,11.528429 286.916656,12.423105 298.209320,14.272806 
	C309.412323,16.107822 320.394470,19.343414 331.423523,22.160307 
	C335.378815,23.170527 339.188385,24.751274 343.472839,26.039629 
	C343.881195,26.007626 343.805969,26.053162 343.805969,26.053162 
	C353.370026,30.420183 362.934113,34.787201 372.704346,39.419617 
M270.514465,58.345703 
	C268.973846,59.822086 266.390259,61.165497 266.180420,62.811554 
	C265.962311,64.521935 267.667633,66.946869 269.201874,68.299156 
	C271.393921,70.231277 274.034637,72.079819 276.789429,72.808456 
	C278.856018,73.355072 282.159698,72.843857 283.568085,71.447479 
	C285.932007,69.103714 284.762604,66.070404 282.029205,64.343491 
	C278.562653,62.153404 274.861267,60.334938 270.514465,58.345703 
M322.966095,93.397163 
	C320.979156,94.450836 317.831085,95.117355 317.316071,96.661835 
	C316.746124,98.371078 318.108673,101.278564 319.492584,102.949463 
	C321.348022,105.189651 323.972137,106.825935 326.375763,108.570595 
	C329.063599,110.521584 332.202759,110.515305 333.579224,107.541298 
	C334.413940,105.737717 333.863220,102.250320 332.543274,100.718651 
	C330.122437,97.909477 326.672211,95.987350 322.966095,93.397163 
M239.025848,47.007332 
	C239.194168,48.450531 238.863434,50.764835 239.612640,51.194050 
	C244.116318,53.774158 248.781067,56.148872 253.619354,57.996777 
	C254.454559,58.315765 257.190277,55.993454 257.572357,54.510868 
	C257.958466,53.012638 257.016327,50.395527 255.760605,49.413254 
	C253.187241,47.400249 250.022171,46.139065 247.086838,44.594692 
	C244.029572,42.986183 241.342300,43.195663 239.025848,47.007332 
z"/>
<path fill="#E36148" opacity="1.000000" stroke="none" 
	d="
M426.812347,215.990967 
	C425.214264,218.306931 423.597565,220.610306 422.021881,222.941406 
	C418.454926,228.218369 416.305939,229.014175 409.409546,227.302521 
	C402.496521,216.958481 395.647247,206.915527 389.490204,196.464752 
	C379.519257,179.540405 370.142181,162.305603 364.557220,143.273499 
	C362.136780,135.025284 363.379669,127.061150 365.753998,119.264885 
	C374.195862,91.545303 404.039001,76.900589 431.297760,86.853607 
	C432.860535,87.424232 434.432068,87.970985 436.457642,88.590668 
	C450.278381,96.275803 460.146057,106.611473 463.232422,122.959991 
	C463.474121,123.956337 463.699097,124.110809 464.078033,124.041000 
	C464.078033,124.041000 463.976624,124.026955 463.799042,124.419304 
	C465.035248,134.224670 463.837952,143.323990 460.200958,152.090027 
	C457.663879,158.205002 455.348755,164.449554 452.304199,170.308716 
	C445.968658,182.501480 439.214722,194.476822 432.389404,206.788513 
	C430.368164,210.020660 428.590271,213.005814 426.812347,215.990967 
M403.456757,163.267746 
	C404.891846,163.683136 406.308472,164.183334 407.764954,164.500534 
	C419.536682,167.064072 432.214691,161.931488 439.233704,151.796631 
	C446.381622,141.475677 446.790070,127.886177 439.831451,117.479149 
	C432.610504,106.679726 422.293579,101.810234 409.391357,103.668449 
	C395.389343,105.685074 384.800873,116.596123 383.110657,129.960846 
	C381.297974,144.293900 388.718048,156.811035 403.456757,163.267746 
z"/>
<path fill="#50B7E3" opacity="1.000000" stroke="none" 
	d="
M432.632751,206.541534 
	C439.214722,194.476822 445.968658,182.501480 452.304199,170.308716 
	C455.348755,164.449554 457.663879,158.205002 460.200958,152.090027 
	C463.837952,143.323990 465.035248,134.224670 463.805481,124.368523 
	C473.853790,138.128510 481.294098,153.563889 487.618835,169.892548 
	C487.958008,170.046280 487.880859,170.085449 487.880859,170.085449 
	C488.929443,173.462021 489.978027,176.838608 490.699860,180.679749 
	C486.125000,180.451660 483.773956,182.399826 482.763428,186.440613 
	C482.158905,188.857864 481.354828,191.227615 480.583374,193.600159 
	C479.456421,197.066071 480.535858,199.723999 483.958435,200.730011 
	C487.247162,201.696655 489.216614,199.727020 490.336365,196.666458 
	C491.400482,193.757904 492.673370,190.925735 493.854492,188.059967 
	C495.240845,194.206314 496.909882,200.305359 497.947784,206.509979 
	C499.528778,215.961258 501.184113,225.448669 501.873474,234.988266 
	C502.741516,247.000778 503.309784,259.108246 502.804962,271.124207 
	C502.377594,281.297150 500.238831,291.398163 498.545898,301.742859 
	C497.648193,300.609344 497.259033,299.125427 496.432465,297.948822 
	C494.952393,295.842041 492.420013,291.974976 491.713623,292.261475 
	C488.819061,293.435425 486.447601,295.899109 483.601898,297.897858 
	C481.175354,293.491119 479.030518,289.074585 476.885681,284.658020 
	C478.144043,277.972778 479.325806,271.272003 480.676361,264.605438 
	C483.723785,249.562622 477.648651,237.653137 464.789825,234.762314 
	C461.081848,233.928711 456.960602,234.933258 452.352966,234.988190 
	C447.448822,228.757126 445.688232,228.334915 440.673737,232.242599 
	C439.691040,229.044449 438.708374,225.846298 437.765808,221.926193 
	C437.714417,218.612564 438.218323,215.803238 437.371735,213.487625 
	C436.438812,210.935806 434.265656,208.837433 432.632751,206.541534 
M469.321655,226.017319 
	C471.055084,227.288895 472.852875,229.635696 474.504272,229.536880 
	C476.238068,229.433090 478.276764,227.263519 479.379272,225.495911 
	C480.927948,223.013031 482.392670,220.126633 482.644928,217.301346 
	C482.834595,215.177368 481.598785,211.748047 480.003387,210.988693 
	C478.537109,210.290817 474.697083,211.765350 473.745514,213.373276 
	C471.612457,216.977676 470.624603,221.259781 469.321655,226.017319 
z"/>
<path fill="#CCD132" opacity="1.000000" stroke="none" 
	d="
M292.684753,450.163147 
	C299.743378,450.567413 306.485138,451.547607 313.188263,451.331268 
	C323.120911,451.010742 333.066376,450.171448 342.935089,448.968079 
	C366.394836,446.107483 388.976746,439.687683 410.113800,429.225250 
	C424.222900,422.241516 437.492462,413.562408 451.149445,405.662231 
	C451.710632,405.337616 452.391388,405.219666 453.360779,404.992493 
	C446.566315,413.054382 439.672211,421.363953 432.217316,429.135620 
	C425.246918,436.402283 417.990356,443.466583 410.280792,449.929352 
	C404.086365,455.122040 397.307373,459.773651 390.286530,463.788940 
	C378.810913,470.351898 366.971313,476.287598 355.191040,482.303406 
	C351.370667,484.254364 347.255157,485.627258 343.113861,487.608887 
	C342.953094,487.953186 342.916748,487.872864 342.916748,487.872864 
	C336.318604,490.034149 329.739441,492.256134 323.114105,494.330505 
	C319.899231,495.337128 316.597839,496.067383 312.989502,496.882996 
	C317.786407,492.645111 322.904327,488.415710 328.085815,484.265594 
	C329.933136,482.786041 331.903687,481.713806 330.592743,478.595886 
	C330.261566,477.808197 331.985199,475.439056 333.259918,474.825256 
	C337.448242,472.808563 341.874451,471.289734 346.187286,469.525909 
	C347.822510,468.857208 349.398041,468.042572 350.397827,467.575897 
	C349.764374,465.136353 349.738159,462.992004 348.701599,461.600098 
	C347.596283,460.115845 345.567963,458.460083 343.887482,458.399170 
	C330.599640,457.917419 317.298706,457.658936 304.001587,457.649048 
	C299.704498,457.645844 295.416809,458.865570 291.106415,459.023529 
	C286.504578,459.192108 285.433838,456.945770 287.922180,452.525574 
	C289.508820,451.554565 290.929688,450.879211 292.684753,450.163147 
z"/>
<path fill="#555555" opacity="1.000000" stroke="none" 
	d="
M473.493530,459.346558 
	C478.675781,462.557770 479.285400,465.809570 475.615997,469.826752 
	C473.497406,472.146088 471.235016,474.348145 468.904236,476.455811 
	C466.210663,478.891571 463.235992,478.379303 460.905884,476.136749 
	C458.500580,473.821777 457.888580,470.366180 460.684113,468.278748 
	C464.792419,465.210999 466.396545,458.594788 473.493530,459.346558 
z"/>
<path fill="#555555" opacity="1.000000" stroke="none" 
	d="
M462.312683,47.637501 
	C458.881897,44.632717 457.810577,41.434956 460.745911,37.968639 
	C463.280090,34.976036 466.769287,35.482719 470.606323,39.151302 
	C472.517151,40.978207 474.425110,42.820946 476.184814,44.790157 
	C478.851318,47.774162 478.614594,50.979134 475.706848,53.443970 
	C472.701782,55.991291 469.577393,55.092281 466.939575,52.392849 
	C465.478119,50.897236 464.053040,49.366058 462.312683,47.637501 
z"/>
<path fill="#555555" opacity="1.000000" stroke="none" 
	d="
M49.054020,36.066261 
	C51.260601,37.734356 54.457527,39.332291 54.559452,41.107899 
	C54.687336,43.335629 52.389336,45.782864 50.924335,47.993576 
	C49.947742,49.467262 48.563061,50.664658 47.421684,52.036194 
	C44.869019,55.103603 40.744564,55.897911 38.203037,53.484653 
	C35.322449,50.749439 35.219669,47.405819 38.016914,44.722946 
	C41.306664,41.567703 45.097134,38.934536 49.054020,36.066261 
z"/>
<path fill="#555555" opacity="1.000000" stroke="none" 
	d="
M54.918098,472.030640 
	C52.245796,478.919128 48.448662,479.784424 43.451027,474.865082 
	C41.104488,472.555359 38.461514,470.245453 37.059162,467.391968 
	C36.231567,465.707977 36.819794,462.175476 38.143520,460.912537 
	C39.455975,459.660370 43.428028,459.144043 44.597244,460.169922 
	C48.437111,463.539062 51.533833,467.755157 54.918098,472.030640 
z"/>
<path fill="#555555" opacity="1.000000" stroke="none" 
	d="
M492.273499,79.156723 
	C487.970612,82.126396 485.104919,80.526367 482.996582,76.846947 
	C481.434113,74.120155 479.553101,71.367569 478.913788,68.390305 
	C478.455109,66.254227 479.102875,62.945759 480.573639,61.610161 
	C481.875793,60.427734 486.532623,60.389088 487.055298,61.325867 
	C489.796112,66.237968 491.738373,71.603134 493.802063,76.871986 
	C493.976868,77.318321 493.003632,78.214287 492.273499,79.156723 
z"/>
<path fill="#555555" opacity="1.000000" stroke="none" 
	d="
M489.669922,449.658264 
	C487.654144,453.781494 484.755524,455.137329 481.071320,452.913208 
	C477.790588,450.932678 477.169708,447.963959 479.181793,444.483521 
	C480.661377,441.924164 481.623962,439.039581 483.278748,436.615204 
	C484.972046,434.134369 487.125671,432.083771 490.722961,433.880249 
	C494.081848,435.557678 494.727722,437.975922 493.377319,441.206390 
	C492.239349,443.928711 491.036255,446.623779 489.669922,449.658264 
z"/>
<path fill="#555555" opacity="1.000000" stroke="none" 
	d="
M26.484257,452.695557 
	C24.270784,448.655914 22.235117,444.879028 20.532249,440.957672 
	C19.220976,437.938049 19.974447,434.877167 23.270405,434.144348 
	C25.354620,433.680878 28.788254,434.409485 29.999634,435.909393 
	C32.547623,439.064240 34.440662,442.940735 35.746155,446.809998 
	C36.257984,448.326935 34.999378,451.506744 33.602615,452.333282 
	C31.842297,453.375031 29.115269,452.783234 26.484257,452.695557 
z"/>
<path fill="#555555" opacity="1.000000" stroke="none" 
	d="
M21.977924,69.121544 
	C23.087812,66.850342 23.938679,64.853470 25.109686,63.066383 
	C26.813486,60.466187 29.144297,59.188202 32.273247,60.705315 
	C35.415382,62.228828 36.694798,64.504105 35.111584,67.918221 
	C33.726562,70.904953 32.575920,74.019783 30.965076,76.876938 
	C29.345818,79.749023 27.117172,81.915871 23.337545,80.097794 
	C19.714901,78.355232 19.292728,75.652626 20.841650,72.268585 
	C21.251106,71.374008 21.525557,70.417633 21.977924,69.121544 
z"/>
<path fill="#555555" opacity="1.000000" stroke="none" 
	d="
M487.940979,170.086121 
	C488.292542,165.708527 488.442017,161.258286 489.097260,156.883789 
	C489.646790,153.215286 491.581909,150.190460 495.842041,150.548920 
	C500.035187,150.901764 501.273773,153.717651 500.145447,159.050140 
	C499.737000,160.980423 499.382965,162.922897 499.038422,164.865906 
	C497.743378,172.168716 494.652893,173.637299 488.245483,169.946411 
	C487.880859,170.085449 487.958008,170.046280 487.940979,170.086121 
z"/>
<path fill="#555555" opacity="1.000000" stroke="none" 
	d="
M18.096437,343.000397 
	C23.672773,341.528046 25.873688,342.846954 25.917097,347.838806 
	C25.945501,351.105164 25.459114,354.409790 24.879532,357.639160 
	C24.162788,361.632812 20.871458,364.075195 17.693794,363.328644 
	C13.246436,362.283875 12.400643,359.484619 13.753044,355.482849 
	C15.137131,351.387329 16.405424,347.252686 18.096437,343.000397 
z"/>
<path fill="#555555" opacity="1.000000" stroke="none" 
	d="
M26.079166,170.063049 
	C24.519176,170.699722 22.942757,171.763779 21.317930,171.843689 
	C17.880249,172.012787 15.819020,169.931244 15.109245,166.656265 
	C14.483846,163.770584 14.176680,160.815201 13.532397,157.934555 
	C12.797031,154.646683 13.242622,152.147629 16.862793,150.907120 
	C21.033663,149.477921 23.557749,151.806778 24.337265,155.126999 
	C25.408384,159.689270 25.371246,164.511703 25.940876,169.673157 
	C26.072783,170.123642 26.040802,170.044540 26.079166,170.063049 
z"/>
<path fill="#555555" opacity="1.000000" stroke="none" 
	d="
M499.255371,362.159668 
	C492.998169,364.443970 490.006042,362.723907 489.028076,356.517578 
	C488.543823,353.444275 487.819092,350.252960 488.224091,347.252838 
	C488.474335,345.399109 490.350891,342.927856 492.043671,342.358704 
	C493.519318,341.862610 497.042816,343.234253 497.442505,344.488007 
	C499.226776,350.085693 502.403595,355.701233 499.255371,362.159668 
z"/>
<path fill="#555555" opacity="1.000000" stroke="none" 
	d="
M501.433533,413.388672 
	C500.787964,416.019257 500.984558,418.734161 499.765381,420.433136 
	C498.352325,422.402161 495.687012,424.587860 493.580902,424.572266 
	C492.045166,424.560944 489.299530,421.157654 489.266754,419.229553 
	C489.195770,415.051910 490.138885,410.722534 491.484467,406.730682 
	C491.935242,405.393372 494.846985,404.260590 496.669891,404.204468 
	C498.182617,404.157837 500.460815,405.482758 501.113159,406.825317 
	C501.959503,408.567230 501.530060,410.928955 501.433533,413.388672 
z"/>
<path fill="#555555" opacity="1.000000" stroke="none" 
	d="
M342.912964,487.934937 
	C347.603638,488.284760 352.358948,488.464569 357.058380,489.074463 
	C361.647491,489.670013 364.045685,492.715149 362.844360,496.485138 
	C361.681152,500.135620 359.024261,501.497803 355.119843,500.207367 
	C353.118256,499.545837 350.949249,499.383575 348.851288,499.022308 
	C342.088623,497.857727 340.617889,495.192932 343.034668,488.270874 
	C342.916748,487.872864 342.953094,487.953186 342.912964,487.934937 
z"/>
<path fill="#555555" opacity="1.000000" stroke="none" 
	d="
M403.253235,19.427080 
	C403.296204,13.674537 405.684967,11.386306 410.770020,12.084663 
	C414.016144,12.530471 417.434998,12.886485 420.340637,14.227237 
	C422.235474,15.101572 424.508453,17.685732 424.484955,19.476013 
	C424.461456,21.262072 421.731781,24.559418 420.282318,24.508810 
	C414.396027,24.303286 407.963257,25.037785 403.253235,19.427080 
z"/>
<path fill="#555555" opacity="1.000000" stroke="none" 
	d="
M23.908930,411.362000 
	C24.292946,413.886932 24.682932,415.985535 24.954147,418.099335 
	C25.399782,421.572479 23.829144,424.074066 20.544392,424.828583 
	C17.042011,425.633118 14.936719,423.462158 14.058193,420.237274 
	C13.243176,417.245483 12.393574,414.212738 12.090985,411.145569 
	C11.775949,407.952209 12.053821,404.608032 16.355570,404.057739 
	C20.154837,403.571747 22.952358,404.597656 23.171339,409.096802 
	C23.201756,409.721741 23.621849,410.327698 23.908930,411.362000 
z"/>
<path fill="#555555" opacity="1.000000" stroke="none" 
	d="
M501.963593,103.065147 
	C501.881287,106.842667 501.397339,109.743111 497.019470,110.033791 
	C492.756714,110.316841 491.082245,108.236031 490.618683,104.329872 
	C490.272369,101.411850 489.425873,98.554214 489.058716,95.637383 
	C488.620300,92.154442 490.483978,89.293961 493.693481,89.331558 
	C495.792358,89.356140 498.624512,91.604759 499.751129,93.625122 
	C501.203125,96.229027 501.278198,99.600761 501.963593,103.065147 
z"/>
<path fill="#555555" opacity="1.000000" stroke="none" 
	d="
M14.674638,109.615303 
	C11.493473,105.443268 12.258413,93.865700 15.885611,90.806549 
	C17.181360,89.713715 19.905653,88.801239 21.086163,89.444054 
	C22.806822,90.381004 24.792757,92.814125 24.766083,94.580704 
	C24.702496,98.791756 23.919653,103.106133 22.684160,107.151825 
	C21.546988,110.875549 18.021423,110.077423 14.674638,109.615303 
z"/>
<path fill="#555555" opacity="1.000000" stroke="none" 
	d="
M406.634613,491.272430 
	C410.237701,490.482605 413.443542,489.698303 416.694916,489.229431 
	C419.988708,488.754456 423.267487,488.932068 423.994781,493.150879 
	C424.643280,496.912567 423.588440,499.641785 419.133545,500.160126 
	C416.535645,500.462372 414.021271,501.421661 411.436127,501.909210 
	C408.046875,502.548401 404.850281,501.756439 403.318939,498.559143 
	C401.879364,495.553497 403.791931,493.199707 406.634613,491.272430 
z"/>
<path fill="#555555" opacity="1.000000" stroke="none" 
	d="
M446.971771,22.993927 
	C448.934052,24.170101 451.375763,24.902683 451.922943,26.351011 
	C452.699738,28.407063 453.005707,32.173744 451.848663,33.076500 
	C450.010040,34.511051 446.640991,34.926319 444.205902,34.413044 
	C441.233582,33.786530 438.121185,32.226013 435.901001,30.170988 
	C434.324371,28.711632 432.976837,25.326471 433.634460,23.606758 
	C434.283569,21.909344 437.549866,20.408733 439.727631,20.322184 
	C441.982849,20.232552 444.309753,21.945435 446.971771,22.993927 
z"/>
<path fill="#555555" opacity="1.000000" stroke="none" 
	d="
M80.342331,22.810036 
	C81.842888,27.246504 80.237305,29.839491 76.357697,31.295668 
	C73.149651,32.499779 70.040970,34.149792 66.729988,34.818134 
	C65.191994,35.128578 62.267384,33.991199 61.769276,32.774246 
	C61.002220,30.900236 61.259460,28.189344 62.032394,26.203299 
	C63.114426,23.423006 74.744751,19.302237 77.553902,20.386793 
	C78.533958,20.765173 79.275818,21.760521 80.342331,22.810036 
z"/>
<path fill="#555555" opacity="1.000000" stroke="none" 
	d="
M170.024200,26.003075 
	C165.312912,25.598211 160.502182,25.512304 155.825653,24.675934 
	C152.045166,23.999813 149.949524,21.126602 151.216171,17.294043 
	C152.296143,14.026309 154.833221,12.433510 158.647247,13.670154 
	C160.974655,14.424785 163.494934,14.579518 165.924789,15.024332 
	C172.015961,16.139393 173.670502,20.100210 170.111847,25.730400 
	C169.963577,26.079134 169.982758,25.997801 170.024200,26.003075 
z"/>
<path fill="#555555" opacity="1.000000" stroke="none" 
	d="
M108.663818,21.794777 
	C104.225464,23.027107 100.124435,24.303537 95.928345,24.849783 
	C93.011749,25.229465 90.218460,24.238270 89.915718,20.477442 
	C89.650627,17.184315 90.307846,14.553177 94.256142,13.950817 
	C97.674095,13.429368 101.066551,12.132200 104.448341,12.204443 
	C106.567207,12.249708 109.447838,13.716223 110.476280,15.444064 
	C111.235313,16.719259 109.554382,19.446785 108.663818,21.794777 
z"/>
<path fill="#555555" opacity="1.000000" stroke="none" 
	d="
M445.572083,491.732422 
	C443.217438,492.591309 441.182861,493.858521 439.198029,493.784821 
	C437.366302,493.716827 434.704651,492.640717 434.014923,491.225677 
	C433.195557,489.544647 433.297943,485.797546 434.388000,485.093475 
	C438.289612,482.573608 442.659546,480.569946 447.110474,479.226044 
	C448.607574,478.774017 452.080261,480.510498 452.496155,481.894135 
	C453.062775,483.779144 452.020325,486.582245 450.809967,488.429596 
	C449.842041,489.906860 447.593750,490.545227 445.572083,491.732422 
z"/>
<path fill="#555555" opacity="1.000000" stroke="none" 
	d="
M73.501022,493.714661 
	C70.279404,492.322540 67.317589,491.273804 64.607506,489.771057 
	C61.340950,487.959717 59.488640,484.581177 61.655910,481.562103 
	C62.896679,479.833649 66.901802,479.022980 69.343109,479.485229 
	C72.604286,480.102722 75.923965,481.917938 78.497894,484.077606 
	C79.975609,485.317505 80.885048,488.410919 80.527145,490.395172 
	C79.944588,493.624969 76.968750,494.340302 73.501022,493.714661 
z"/>
<path fill="#555555" opacity="1.000000" stroke="none" 
	d="
M169.964203,487.967712 
	C173.926163,494.013977 172.310577,497.811768 165.228821,499.009796 
	C162.641174,499.447571 159.979538,500.411346 157.477966,500.104675 
	C155.280716,499.835358 152.233963,498.634003 151.393753,496.937347 
	C150.018066,494.159485 150.912216,490.670502 154.614243,489.897522 
	C159.380447,488.902344 164.291443,488.600647 169.597641,487.999512 
	C170.055206,487.998779 169.974396,488.007019 169.964203,487.967712 
z"/>
<path fill="#555555" opacity="1.000000" stroke="none" 
	d="
M106.425957,501.906891 
	C101.981056,501.301208 97.939194,500.693542 93.917130,499.974945 
	C90.028809,499.280334 89.005554,496.202148 90.171654,493.310760 
	C90.924309,491.444489 93.749397,489.337036 95.713127,489.268433 
	C99.389061,489.140137 103.241127,490.046722 106.763474,491.264526 
	C108.459366,491.850830 110.866394,494.332214 110.664543,495.587830 
	C110.304970,497.824615 108.208015,499.782104 106.425957,501.906891 
z"/>
<path fill="#555555" opacity="1.000000" stroke="none" 
	d="
M123.105980,492.573608 
	C127.587196,492.210358 131.737640,492.169891 135.882034,491.990143 
	C139.738297,491.822845 141.889801,494.488983 141.567352,497.385162 
	C141.342804,499.402069 138.508652,501.993958 136.312149,502.710785 
	C133.450562,503.644623 130.016937,503.321716 126.923584,502.880249 
	C124.746567,502.569580 122.018692,501.705841 120.795380,500.118835 
	C118.757912,497.475769 120.290558,494.793732 123.105980,492.573608 
z"/>
<path fill="#555555" opacity="1.000000" stroke="none" 
	d="
M343.875763,26.050558 
	C340.173859,19.723598 341.753662,16.207712 348.839508,14.976250 
	C351.104126,14.582677 353.409882,14.293758 355.600616,13.636410 
	C359.415955,12.491608 361.774719,14.158059 362.847900,17.512926 
	C363.984222,21.065252 361.579437,24.343163 357.530640,24.892876 
	C353.296326,25.467779 349.009888,25.658665 344.276093,26.035286 
	C343.805969,26.053162 343.881195,26.007626 343.875763,26.050558 
z"/>
<path fill="#555555" opacity="1.000000" stroke="none" 
	d="
M391.547363,20.911570 
	C386.314972,21.430517 381.345734,22.143988 376.498688,21.652575 
	C374.870422,21.487494 372.381653,18.228045 372.424683,16.434254 
	C372.467316,14.659018 375.007233,11.749399 376.805634,11.447810 
	C381.167328,10.716359 385.793671,10.763088 390.202545,11.341301 
	C394.475250,11.901658 395.085083,16.220081 391.547363,20.911570 
z"/>
<path fill="#555555" opacity="1.000000" stroke="none" 
	d="
M127.346443,21.998775 
	C122.685280,22.203098 120.086586,20.293522 120.109474,16.002493 
	C120.133415,11.515834 123.433861,10.920955 127.034668,10.993647 
	C130.189163,11.057327 133.582199,10.344902 136.423462,11.301379 
	C138.595276,12.032500 141.350143,14.709460 141.549774,16.745943 
	C141.838013,19.686337 139.582672,22.212749 135.766830,22.019451 
	C133.116089,21.885176 130.452866,21.997381 127.346443,21.998775 
z"/>
<path fill="#555555" opacity="1.000000" stroke="none" 
	d="
M372.714172,495.674347 
	C374.720184,494.223907 376.428497,492.469940 378.372559,492.150452 
	C381.599579,491.620056 384.982239,491.909271 388.291718,492.042877 
	C391.771667,492.183411 394.387573,494.271332 393.716187,497.567871 
	C393.295166,499.635101 390.632751,502.175903 388.503754,502.748627 
	C385.258698,503.621521 381.578796,503.239349 378.131256,502.902222 
	C374.207397,502.518524 371.722076,500.482513 372.714172,495.674347 
z"/>
<path fill="#555555" opacity="1.000000" stroke="none" 
	d="
M502.999573,383.987610 
	C502.995667,385.943939 502.993073,387.433685 502.987793,388.923462 
	C502.976685,392.055450 501.649750,393.925262 498.286255,393.993805 
	C494.869781,394.063324 492.347534,392.834747 492.103760,389.157013 
	C491.852448,385.366180 491.553894,381.460663 492.222900,377.777313 
	C492.547760,375.988953 494.784424,373.755371 496.600342,373.213379 
	C499.426666,372.369843 502.254700,373.585175 502.811676,377.080597 
	C503.146881,379.183990 502.954773,381.371368 502.999573,383.987610 
z"/>
<path fill="#555555" opacity="1.000000" stroke="none" 
	d="
M21.997440,379.306671 
	C21.989944,382.744659 22.080053,385.729675 21.949362,388.705048 
	C21.775866,392.654968 19.346151,394.088623 15.668353,393.986328 
	C12.009358,393.884552 10.877640,391.761017 10.983842,388.433472 
	C11.084164,385.290222 11.003078,382.141327 11.011329,378.994934 
	C11.022039,374.910126 13.105676,373.006531 17.159599,372.997345 
	C21.221741,372.988129 22.174538,375.420380 21.997440,379.306671 
z"/>
<path fill="#555555" opacity="1.000000" stroke="none" 
	d="
M20.119518,140.160873 
	C12.709879,141.734558 11.060123,140.419708 11.006092,133.377106 
	C10.984475,130.559387 10.541465,127.631088 11.172321,124.961578 
	C11.604022,123.134789 13.518948,120.375557 14.844665,120.332970 
	C17.027311,120.262856 21.105795,121.942169 21.176075,123.081871 
	C21.519838,128.656509 20.801905,134.296600 20.119518,140.160873 
z"/>
<path fill="#555555" opacity="1.000000" stroke="none" 
	d="
M492.001831,133.775040 
	C492.004883,130.829025 491.986206,128.345428 492.015961,125.862419 
	C492.065338,121.738068 494.279877,119.911240 498.289673,120.018234 
	C502.291931,120.125031 503.174896,122.603912 503.021362,126.037186 
	C502.903168,128.680817 503.030701,131.334457 502.989410,133.982727 
	C502.906189,139.320755 501.380737,141.049164 497.010193,140.988480 
	C492.346832,140.923721 491.717285,137.936584 492.001831,133.775040 
z"/>
<path fill="#595954" opacity="1.000000" stroke="none" 
	d="
M491.312531,333.128906 
	C484.969666,332.516907 478.402466,322.642548 480.454041,316.885284 
	C481.030701,315.266968 483.392609,313.371643 485.014130,313.296509 
	C486.624481,313.221832 488.907776,314.924103 489.870361,316.481171 
	C491.477173,319.080353 492.266998,322.184601 493.674255,325.244843 
	C493.174927,327.906250 492.402039,330.399017 491.312531,333.128906 
z"/>
<path fill="#55585A" opacity="1.000000" stroke="none" 
	d="
M493.898376,187.682739 
	C492.673370,190.925735 491.400482,193.757904 490.336365,196.666458 
	C489.216614,199.727020 487.247162,201.696655 483.958435,200.730011 
	C480.535858,199.723999 479.456421,197.066071 480.583374,193.600159 
	C481.354828,191.227615 482.158905,188.857864 482.763428,186.440613 
	C483.773956,182.399826 486.125000,180.451660 490.781250,181.066681 
	C492.107056,183.094543 493.024689,185.200027 493.898376,187.682739 
z"/>
<path fill="#555859" opacity="1.000000" stroke="none" 
	d="
M187.707230,20.121601 
	C191.093506,21.383482 194.086960,22.681187 197.149811,23.786615 
	C200.545029,25.011984 202.046387,27.345867 200.854477,30.716129 
	C199.708908,33.955345 196.976791,34.484879 193.900742,33.549290 
	C191.527176,32.827366 189.193939,31.960794 186.798538,31.325235 
	C182.224640,30.111670 180.479187,27.412863 182.055298,22.460670 
	C183.826950,21.427671 185.585983,20.750151 187.707230,20.121601 
z"/>
<path fill="#555859" opacity="1.000000" stroke="none" 
	d="
M182.269806,492.078705 
	C181.009064,485.340668 181.667038,484.274597 187.977219,482.257355 
	C190.185333,481.551483 192.482254,480.189575 194.605637,480.409760 
	C196.816528,480.639008 200.130722,482.019806 200.636246,483.628204 
	C201.154434,485.277069 199.392014,488.597900 197.665298,489.774841 
	C195.026581,491.573364 191.561310,492.159241 188.265198,493.561157 
	C186.256912,493.317017 184.430359,492.771667 182.269806,492.078705 
z"/>
<path fill="#50B7E3" opacity="1.000000" stroke="none" 
	d="
M464.018188,123.846756 
	C463.699097,124.110809 463.474121,123.956337 463.387085,123.348984 
	C463.645020,123.211441 463.840790,123.388817 464.018188,123.846756 
z"/>
<path fill="#DBDF2B" opacity="1.000000" stroke="none" 
	d="
M62.914692,216.848892 
	C63.222176,216.410934 63.529663,215.972977 63.919418,215.277756 
	C66.012154,210.604965 68.434074,206.322983 69.922157,201.737915 
	C71.544250,196.739914 73.670128,192.581497 79.547134,191.023880 
	C87.834000,204.422913 95.416885,217.720200 103.331085,230.817276 
	C106.928871,236.771210 112.431717,236.816483 115.872322,230.829453 
	C125.067062,214.829590 134.193130,198.776428 142.792068,182.452362 
	C149.712509,169.314713 150.459808,155.734375 143.005051,142.317276 
	C148.896957,139.264069 154.888153,136.384872 160.647446,133.099243 
	C164.795944,130.732544 169.016830,128.242111 172.514465,125.049828 
	C176.701248,121.228554 177.952393,116.037804 176.486572,110.374283 
	C175.945099,108.282158 175.414490,106.174683 175.088165,104.042183 
	C174.525208,100.363258 174.973267,96.334656 178.549026,94.951660 
	C181.217514,93.919571 185.330185,94.099503 187.756165,95.520851 
	C191.974823,97.992500 195.828842,101.458298 199.050323,105.186020 
	C206.777344,114.127289 214.037766,123.471237 221.506241,132.636581 
	C231.834869,145.311920 244.925644,152.529968 261.491211,153.176605 
	C266.298584,153.364273 271.076935,154.259903 275.872345,154.797302 
	C287.043640,156.049210 293.635376,162.274963 295.971313,173.188309 
	C296.667725,176.441818 297.331787,179.711624 298.246857,182.906296 
	C299.161072,186.097824 301.091614,187.397263 304.799469,187.651764 
	C309.586945,187.980362 315.320404,188.485474 318.819183,191.237610 
	C334.747192,203.766586 346.016235,219.642181 348.098999,240.427017 
	C349.870087,258.101929 340.990479,270.581024 323.856354,274.869568 
	C311.439880,277.977264 298.846283,280.412170 286.275085,282.856232 
	C274.750702,285.096802 264.567474,281.241730 255.147430,274.970947 
	C245.455399,268.519043 235.102570,267.474518 224.098785,270.618713 
	C220.421448,271.669495 216.688156,272.524536 213.010727,273.575012 
	C203.639679,276.251892 194.521133,276.652100 185.211700,272.658752 
	C177.638763,269.410309 170.713226,271.740997 166.159210,279.819733 
	C162.473694,286.357819 160.188675,293.821869 158.156128,301.118500 
	C155.930161,309.109436 155.108444,317.486816 152.968277,325.507263 
	C147.501297,345.994995 135.167084,354.914948 113.462357,354.371674 
	C112.833313,354.334930 112.665741,354.247833 112.064713,353.757538 
	C100.883064,338.293915 91.217300,322.660858 83.699760,305.645416 
	C71.175972,277.298676 63.943253,247.829147 62.914692,216.848892 
z"/>
<path fill="#E36148" opacity="1.000000" stroke="none" 
	d="
M142.731323,142.099380 
	C150.459808,155.734375 149.712509,169.314713 142.792068,182.452362 
	C134.193130,198.776428 125.067062,214.829590 115.872322,230.829453 
	C112.431717,236.816483 106.928871,236.771210 103.331085,230.817276 
	C95.416885,217.720200 87.834000,204.422913 79.941177,190.930588 
	C77.625343,185.426971 75.242035,180.284454 73.387001,174.957977 
	C66.979813,156.560455 74.300522,137.554916 91.117210,128.442917 
	C107.905975,119.346031 128.558777,123.783348 140.420319,139.044998 
	C141.134186,139.963470 141.780075,140.934769 142.731323,142.099380 
M91.974556,178.290665 
	C99.724533,186.913284 111.934074,188.871185 121.726486,183.061615 
	C131.664978,177.165390 135.685410,165.486572 131.538223,153.464066 
	C130.847305,152.144623 130.288406,150.733292 129.444122,149.520615 
	C123.803085,141.418289 115.944633,137.790283 106.234985,139.114395 
	C96.919693,140.384735 90.267845,145.746841 87.227829,154.640945 
	C84.378761,162.976379 85.272240,170.998291 91.974556,178.290665 
z"/>
<path fill="#55585A" opacity="1.000000" stroke="none" 
	d="
M332.068787,413.979187 
	C329.707062,415.839325 327.627563,417.472321 325.557434,419.117065 
	C322.824005,421.288940 319.987946,421.630554 317.735474,418.717010 
	C315.465118,415.780334 316.696533,413.133270 319.328369,410.993805 
	C321.251617,409.430267 323.208832,407.908295 325.125580,406.336945 
	C327.812653,404.134125 330.670837,402.920227 333.412384,405.973969 
	C335.938171,408.787384 334.835876,411.447540 332.068787,413.979187 
z"/>
<path fill="#555859" opacity="1.000000" stroke="none" 
	d="
M282.606995,449.477417 
	C279.825256,451.234100 277.288208,452.742920 274.700439,454.159058 
	C269.167572,457.186798 266.157501,455.327759 266.032043,448.425720 
	C269.358612,445.821991 272.454865,443.179626 276.020782,441.592316 
	C278.000214,440.711212 281.351349,440.726257 283.041199,441.873596 
	C285.831879,443.768402 285.010162,446.779419 282.606995,449.477417 
z"/>
<path fill="#55585A" opacity="1.000000" stroke="none" 
	d="
M302.276123,436.365112 
	C300.682098,437.330200 299.331665,438.767639 298.114685,438.662384 
	C296.198669,438.496643 293.366638,437.747498 292.763702,436.413239 
	C292.015350,434.757294 292.399414,431.548035 293.617035,430.264038 
	C296.083099,427.663605 299.227966,425.413574 302.515259,424.003601 
	C304.272156,423.250000 308.228943,423.876251 308.836609,425.074615 
	C309.739410,426.854919 309.180542,430.054565 308.075531,431.979462 
	C307.021790,433.815033 304.471771,434.791565 302.276123,436.365112 
z"/>
<path fill="#585955" opacity="1.000000" stroke="none" 
	d="
M347.912811,385.977844 
	C348.755219,385.572388 349.677185,384.779846 350.510010,384.864502 
	C352.725128,385.089691 355.879059,385.000671 356.825287,386.336212 
	C357.818512,387.738007 357.512573,391.377930 356.306885,392.753876 
	C353.538940,395.912659 349.878784,398.289673 346.237946,401.092834 
	C339.492065,399.348907 338.541290,395.837677 343.160004,391.130157 
	C343.956970,390.317871 344.718140,389.470459 345.985016,388.279602 
	C346.656464,387.587097 346.838776,387.254272 347.021118,386.921448 
	C347.021118,386.921448 347.018707,387.018768 347.266968,386.974731 
	C347.669037,386.591309 347.822906,386.251953 347.976746,385.912567 
	C347.976746,385.912567 347.951752,385.990692 347.912811,385.977844 
z"/>
<path fill="#585956" opacity="1.000000" stroke="none" 
	d="
M292.341370,82.892303 
	C292.806488,80.354424 292.901886,76.914955 294.470734,75.998848 
	C296.060516,75.070503 299.245972,76.296288 301.474487,77.208794 
	C303.556427,78.061279 305.360901,79.661858 307.179901,81.071953 
	C311.656372,84.542084 311.342621,87.804688 305.918457,91.094559 
	C301.227722,88.503487 296.922913,85.800606 292.341370,82.892303 
z"/>
<path fill="#595954" opacity="1.000000" stroke="none" 
	d="
M355.047485,130.015976 
	C348.084747,129.711716 344.562469,124.375755 340.892731,119.631271 
	C340.172882,118.700577 341.256378,115.192726 342.531738,114.231178 
	C343.826202,113.255211 346.933929,113.160072 348.286194,114.084892 
	C351.673615,116.401566 354.517059,119.513618 357.829773,122.587936 
	C357.545471,124.842438 357.010071,126.815620 355.991638,129.091705 
	C355.233673,129.550461 355.057037,129.781494 354.978668,130.087677 
	C354.978668,130.087677 355.005035,130.002670 355.047485,130.015976 
z"/>
<path fill="#585955" opacity="1.000000" stroke="none" 
	d="
M215.837982,30.836483 
	C219.318237,32.011864 222.385468,33.300598 225.488571,34.496311 
	C228.845459,35.789822 231.154099,37.945976 229.716568,41.686150 
	C228.281693,45.419468 225.188278,45.630615 221.829147,44.088261 
	C221.074387,43.741718 220.280334,43.480759 219.118484,43.137787 
	C217.417068,42.441639 215.828903,42.059185 214.848114,41.072803 
	C213.266296,39.481960 210.979416,37.445713 211.054993,35.686279 
	C211.125961,34.034054 213.871841,32.496738 215.837982,30.836483 
z"/>
<path fill="#DADE2C" opacity="1.000000" stroke="none" 
	d="
M355.243439,130.220276 
	C355.057037,129.781494 355.233673,129.550461 355.723206,129.334320 
	C355.794617,129.633667 355.651428,129.993286 355.243439,130.220276 
z"/>
<path fill="#DADE2C" opacity="1.000000" stroke="none" 
	d="
M346.708008,386.962585 
	C346.838776,387.254272 346.656464,387.587097 346.201538,388.041229 
	C346.084229,387.776276 346.239563,387.390015 346.708008,386.962585 
z"/>
<path fill="#DADE2C" opacity="1.000000" stroke="none" 
	d="
M347.635223,385.825012 
	C347.822906,386.251953 347.669037,386.591309 347.218262,386.973969 
	C347.045471,386.590637 347.169586,386.164032 347.635223,385.825012 
z"/>
<path fill="#CDD130" opacity="1.000000" stroke="none" 
	d="
M62.595901,216.986465 
	C63.943253,247.829147 71.175972,277.298676 83.699760,305.645416 
	C91.217300,322.660858 100.883064,338.293915 111.809341,353.634918 
	C97.448601,353.014191 85.038513,346.669678 73.901474,337.978333 
	C45.485931,315.802795 31.294714,286.259033 30.189379,250.407394 
	C29.756350,236.362000 37.559578,226.552277 51.098911,222.393311 
	C54.996723,221.195999 58.560295,218.910583 62.595901,216.986465 
z"/>
<path fill="#555859" opacity="1.000000" stroke="none" 
	d="
M216.040985,483.003967 
	C213.974335,481.493591 211.056732,480.038361 210.962860,478.419434 
	C210.859940,476.644135 213.013641,474.206207 214.813278,472.982635 
	C217.234909,471.336273 220.195450,469.926208 223.044968,469.648315 
	C225.179184,469.440216 227.503357,471.179962 229.742981,472.052460 
	C228.856720,474.301544 228.599945,477.475830 226.948120,478.599670 
	C223.872391,480.692352 219.984482,481.591217 216.040985,483.003967 
z"/>
<path fill="#555759" opacity="1.000000" stroke="none" 
	d="
M255.063126,456.123596 
	C259.091400,460.404419 258.804138,463.113129 254.225677,465.743744 
	C251.636093,467.231659 249.023636,469.133728 246.207855,469.625122 
	C244.092529,469.994263 241.636948,468.413757 239.332825,467.701202 
	C240.064941,465.407532 240.120300,461.932770 241.660873,461.050018 
	C245.669861,458.752899 250.330719,457.593414 255.063126,456.123596 
z"/>
<path fill="#54B8DE" opacity="1.000000" stroke="none" 
	d="
M411.188629,289.418396 
	C411.124084,292.313263 410.715240,295.152222 411.646667,297.447266 
	C412.770782,300.217163 412.850708,301.661438 410.255737,303.684662 
	C408.424408,305.112488 407.871979,308.084900 406.447296,310.160980 
	C405.344147,311.768494 403.774414,313.055847 402.412079,314.485504 
	C401.596619,312.562958 400.223419,310.671692 400.113220,308.709564 
	C399.988220,306.483398 401.439697,304.186493 401.402924,301.933411 
	C401.348572,298.604309 400.748657,295.252594 400.062317,291.977295 
	C399.662994,290.071655 397.943054,288.250183 398.060791,286.473175 
	C398.245026,283.692352 398.781738,280.309540 400.529724,278.485657 
	C401.626709,277.341064 405.421753,278.034058 407.635742,278.876465 
	C411.319672,280.278259 414.705902,282.462433 418.217529,284.317078 
	C418.091003,284.839935 417.964447,285.362762 417.837921,285.885620 
	C415.704651,286.964264 413.571381,288.042908 411.188629,289.418396 
z"/>
<path fill="#595A55" opacity="1.000000" stroke="none" 
	d="
M467.964783,263.423553 
	C468.793671,265.417053 470.221313,267.394745 470.274323,269.408691 
	C470.322388,271.234802 469.343750,273.911377 467.950836,274.720337 
	C466.559570,275.528381 463.147217,275.225494 462.274811,274.112823 
	C459.681885,270.805725 457.902802,266.860565 455.760742,262.433075 
	C457.471497,258.432739 457.271362,255.170425 455.684296,251.912598 
	C457.433197,248.365265 458.753021,244.490387 461.107880,241.405609 
	C462.327667,239.807693 465.629242,238.560959 467.550262,239.015503 
	C470.733154,239.768585 471.389923,242.828094 469.983490,245.849457 
	C468.522339,248.988312 466.874237,252.040131 464.936584,255.649765 
	C465.698456,258.587524 466.831635,261.005554 467.964783,263.423553 
z"/>
<path fill="#595A55" opacity="1.000000" stroke="none" 
	d="
M400.908112,347.829834 
	C398.443024,350.504669 396.020782,353.220734 393.500122,355.842133 
	C391.243561,358.188812 388.618835,358.781677 386.048645,356.476288 
	C383.709625,354.378265 383.693878,351.789032 385.630737,349.391510 
	C387.773956,346.738495 389.755951,343.719940 392.489349,341.863586 
	C394.244507,340.671600 397.229614,341.290680 400.121979,341.621094 
	C400.689728,344.039429 400.798920,345.934631 400.908112,347.829834 
z"/>
<path fill="#595A56" opacity="1.000000" stroke="none" 
	d="
M440.570679,232.532715 
	C445.688232,228.334915 447.448822,228.757126 451.894897,235.098053 
	C452.883942,236.761902 453.645508,238.214279 454.428223,239.655167 
	C457.101379,244.576324 456.187225,246.760483 449.958801,248.680878 
	C447.798492,247.044525 446.287262,245.484833 444.776031,243.925156 
	C443.339905,240.224380 441.903748,236.523605 440.570679,232.532715 
z"/>
<path fill="#595A55" opacity="1.000000" stroke="none" 
	d="
M476.501953,284.559540 
	C479.030518,289.074585 481.175354,293.491119 483.476471,298.272522 
	C481.901550,300.368774 480.210052,303.413696 478.428192,303.467499 
	C476.592834,303.522949 474.296783,300.935455 472.888855,299.003906 
	C471.466736,297.052979 470.807007,294.517303 469.954132,292.186249 
	C468.004974,286.858734 470.146729,284.210480 476.501953,284.559540 
z"/>
<path fill="#595A54" opacity="1.000000" stroke="none" 
	d="
M435.085693,304.061340 
	C432.510925,307.370361 430.779114,311.911804 425.612183,309.062714 
	C422.058105,307.102905 422.372498,304.310181 426.440857,298.486145 
	C427.481903,296.995819 428.501709,295.488739 429.593903,294.036469 
	C431.523407,291.470764 434.003876,290.302490 436.865051,292.272156 
	C439.914062,294.371094 439.695953,297.225739 437.837402,300.094025 
	C437.028992,301.341675 436.139496,302.536804 435.085693,304.061340 
z"/>
<path fill="#5A5A54" opacity="1.000000" stroke="none" 
	d="
M371.567291,364.185883 
	C374.618378,362.102966 377.353333,362.078308 379.310913,364.869965 
	C381.251556,367.637421 380.144531,370.217041 377.858856,372.409302 
	C375.698700,374.481262 373.903412,377.231354 371.358093,378.505280 
	C369.486847,379.441864 366.029266,379.293335 364.480408,378.086243 
	C363.373901,377.223907 363.440155,373.314758 364.442322,371.636566 
	C366.098389,368.863220 368.931976,366.792999 371.567291,364.185883 
z"/>
<path fill="#595954" opacity="1.000000" stroke="none" 
	d="
M455.153198,272.997833 
	C453.255280,276.175690 451.962341,279.485321 449.626160,281.688965 
	C448.114655,283.114716 444.730804,283.904022 442.804993,283.224426 
	C439.949615,282.216766 439.692413,279.155182 441.211365,276.437561 
	C442.672485,273.823425 443.912872,270.920105 445.966248,268.856140 
	C447.560150,267.253967 450.431915,265.675110 452.422668,266.000519 
	C455.617950,266.522919 456.618530,269.427673 455.153198,272.997833 
z"/>
<path fill="#595A55" opacity="1.000000" stroke="none" 
	d="
M405.550720,332.885284 
	C403.809143,330.141907 404.175995,327.635254 406.259827,325.204041 
	C408.081757,323.078369 409.738129,320.811523 411.536469,318.664703 
	C413.583160,316.221313 416.093445,315.172974 418.864288,317.308441 
	C421.784607,319.559143 421.548340,322.332703 419.463684,325.110016 
	C418.672821,326.163666 417.873749,327.211243 416.667816,328.771729 
	C413.421539,332.661438 410.712860,336.418274 405.550720,332.885284 
z"/>
<path fill="#53B6DC" opacity="1.000000" stroke="none" 
	d="
M444.415588,244.024475 
	C446.287262,245.484833 447.798492,247.044525 449.596130,248.732605 
	C451.600647,249.844116 453.318817,250.827240 455.360626,251.861481 
	C457.271362,255.170425 457.471497,258.432739 455.723541,262.020477 
	C453.375122,256.135315 451.933746,263.081512 449.462585,262.652405 
	C447.500763,260.536041 449.139465,253.738052 440.802032,257.081604 
	C442.102814,251.900375 443.078979,248.012085 444.415588,244.024475 
z"/>
<path fill="#57B7D6" opacity="1.000000" stroke="none" 
	d="
M405.361023,333.231537 
	C410.712860,336.418274 413.421539,332.661438 416.536682,329.095337 
	C418.368134,331.273285 419.920166,333.637817 421.472198,336.002350 
	C421.047638,336.473969 420.623077,336.945557 420.198517,337.417175 
	C418.003571,337.121124 415.746002,337.055054 413.627625,336.477966 
	C409.981079,335.484467 407.888306,336.185791 407.808929,340.425842 
	C407.775482,342.211853 407.390747,344.054260 406.815094,345.752197 
	C405.969025,348.247803 404.453918,349.808289 401.262390,347.921783 
	C400.798920,345.934631 400.689728,344.039429 400.447144,341.754395 
	C401.932922,338.768951 403.552094,336.173370 405.361023,333.231537 
z"/>
<path fill="#595856" opacity="1.000000" stroke="none" 
	d="
M432.389404,206.788513 
	C434.265656,208.837433 436.438812,210.935806 437.371735,213.487625 
	C438.218323,215.803238 437.714417,218.612564 437.580139,221.535019 
	C431.745575,224.377441 429.676514,220.062439 426.992401,216.288666 
	C428.590271,213.005814 430.368164,210.020660 432.389404,206.788513 
z"/>
<path fill="#5AB7D2" opacity="1.000000" stroke="none" 
	d="
M468.304382,263.416687 
	C466.831635,261.005554 465.698456,258.587524 464.803131,256.012207 
	C466.873627,257.203247 468.706268,258.551605 471.195984,260.383392 
	C470.476654,261.236450 469.560333,262.323151 468.304382,263.416687 
z"/>
<path fill="#595954" opacity="1.000000" stroke="none" 
	d="
M270.887817,58.350960 
	C274.861267,60.334938 278.562653,62.153404 282.029205,64.343491 
	C284.762604,66.070404 285.932007,69.103714 283.568085,71.447479 
	C282.159698,72.843857 278.856018,73.355072 276.789429,72.808456 
	C274.034637,72.079819 271.393921,70.231277 269.201874,68.299156 
	C267.667633,66.946869 265.962311,64.521935 266.180420,62.811554 
	C266.390259,61.165497 268.973846,59.822086 270.887817,58.350960 
z"/>
<path fill="#5A5A54" opacity="1.000000" stroke="none" 
	d="
M323.308655,93.546280 
	C326.672211,95.987350 330.122437,97.909477 332.543274,100.718651 
	C333.863220,102.250320 334.413940,105.737717 333.579224,107.541298 
	C332.202759,110.515305 329.063599,110.521584 326.375763,108.570595 
	C323.972137,106.825935 321.348022,105.189651 319.492584,102.949463 
	C318.108673,101.278564 316.746124,98.371078 317.316071,96.661835 
	C317.831085,95.117355 320.979156,94.450836 323.308655,93.546280 
z"/>
<path fill="#595954" opacity="1.000000" stroke="none" 
	d="
M239.155975,46.642502 
	C241.342300,43.195663 244.029572,42.986183 247.086838,44.594692 
	C250.022171,46.139065 253.187241,47.400249 255.760605,49.413254 
	C257.016327,50.395527 257.958466,53.012638 257.572357,54.510868 
	C257.190277,55.993454 254.454559,58.315765 253.619354,57.996777 
	C248.781067,56.148872 244.116318,53.774158 239.612640,51.194050 
	C238.863434,50.764835 239.194168,48.450531 239.155975,46.642502 
z"/>
<path fill="#50B6E3" opacity="1.000000" stroke="none" 
	d="
M403.081909,163.143158 
	C388.718048,156.811035 381.297974,144.293900 383.110657,129.960846 
	C384.800873,116.596123 395.389343,105.685074 409.391357,103.668449 
	C422.293579,101.810234 432.610504,106.679726 439.831451,117.479149 
	C446.790070,127.886177 446.381622,141.475677 439.233704,151.796631 
	C432.214691,161.931488 419.536682,167.064072 407.764954,164.500534 
	C406.308472,164.183334 404.891846,163.683136 403.081909,163.143158 
z"/>
<path fill="#55595B" opacity="1.000000" stroke="none" 
	d="
M469.246033,225.641632 
	C470.624603,221.259781 471.612457,216.977676 473.745514,213.373276 
	C474.697083,211.765350 478.537109,210.290817 480.003387,210.988693 
	C481.598785,211.748047 482.834595,215.177368 482.644928,217.301346 
	C482.392670,220.126633 480.927948,223.013031 479.379272,225.495911 
	C478.276764,227.263519 476.238068,229.433090 474.504272,229.536880 
	C472.852875,229.635696 471.055084,227.288895 469.246033,225.641632 
z"/>
<path fill="#51B7E2" opacity="1.000000" stroke="none" 
	d="
M91.701271,177.739746 
	C85.272240,170.998291 84.378761,162.976379 87.227829,154.640945 
	C90.267845,145.746841 96.919693,140.384735 106.234985,139.114395 
	C115.944633,137.790283 123.803085,141.418289 129.444122,149.520615 
	C130.288406,150.733292 130.847305,152.144623 131.380096,154.003296 
	C125.581154,160.426331 118.055984,161.731705 110.538063,163.033630 
	C101.627632,164.576706 94.739571,168.686584 91.701271,177.739746 
z"/>
<path fill="#DADE2D" opacity="1.000000" stroke="none" 
	d="
M91.837914,178.015198 
	C94.739571,168.686584 101.627632,164.576706 110.538063,163.033630 
	C118.055984,161.731705 125.581154,160.426331 131.453308,154.338440 
	C135.685410,165.486572 131.664978,177.165390 121.726486,183.061615 
	C111.934074,188.871185 99.724533,186.913284 91.837914,178.015198 
z"/>
</svg>